<?xml version="1.0" standalone="no"?>
<!DOCTYPE svg PUBLIC "-//W3C//DTD SVG 20010904//EN"
 "http://www.w3.org/TR/2001/REC-SVG-20010904/DTD/svg10.dtd">
<svg version="1.0" xmlns="http://www.w3.org/2000/svg"
 width="213.000000pt" height="408.000000pt" viewBox="0 0 213.000000 408.000000"
 preserveAspectRatio="xMidYMid meet">

<g transform="translate(0.000000,408.000000) scale(0.100000,-0.100000)"
fill="#000000" stroke="none">
<path d="M29 4051 l-29 -29 0 -1982 0 -1982 29 -29 30 -29 1011 2 1012 3 24
28 24 28 0 1980 0 1981 -29 29 -29 29 -1007 0 -1007 0 -29 -29z m929 -183 c7
-7 12 -22 12 -35 0 -25 -31 -43 -74 -43 -15 0 -26 -7 -29 -20 -3 -11 -12 -20
-21 -20 -13 0 -16 12 -16 65 l0 65 58 0 c32 0 63 -5 70 -12z m67 -53 c0 -49
-3 -60 -17 -63 -16 -3 -18 5 -18 63 0 58 2 66 18 63 14 -3 17 -14 17 -63z m57
8 c2 -20 9 -29 26 -31 19 -3 22 1 22 28 0 45 34 38 38 -9 4 -42 -5 -68 -19
-54 -7 7 -20 7 -41 -1 -26 -10 -32 -8 -49 13 -19 23 -25 61 -12 74 15 15 32 5
35 -20z m208 12 c7 -9 10 -18 7 -22 -4 -3 -1 -13 5 -21 26 -31 -56 -56 -103
-32 -24 13 -25 30 -2 30 15 0 14 2 -3 15 -19 15 -19 15 0 30 26 19 80 19 96 0z
m-600 -510 c0 -59 2 -65 21 -65 14 0 19 -5 17 -17 -3 -15 -16 -19 -66 -21 -56
-3 -62 -1 -62 16 0 11 9 22 20 25 15 4 20 14 20 36 0 24 -4 31 -20 31 -34 0
-24 34 13 47 57 18 57 18 57 -52z m140 56 c0 -4 -11 -25 -25 -45 -23 -34 -23
-36 -5 -36 11 0 20 7 20 15 0 25 23 65 37 65 9 0 13 -13 13 -40 0 -22 5 -40
10 -40 6 0 10 -9 10 -20 0 -11 -4 -20 -9 -20 -5 0 -11 -9 -14 -20 -3 -12 -14
-20 -26 -20 -14 0 -21 6 -21 20 0 17 -7 20 -40 20 -48 0 -50 10 -18 81 18 38
28 49 45 49 13 0 23 -4 23 -9z m200 -11 c0 -16 -7 -20 -34 -20 -19 0 -38 -5
-41 -10 -4 -7 2 -9 19 -4 19 4 31 0 50 -20 32 -31 32 -41 1 -71 -30 -31 -77
-33 -105 -5 -27 27 -25 40 5 40 14 0 25 -4 25 -10 0 -5 9 -10 20 -10 13 0 20
7 20 20 0 18 -5 20 -37 18 l-38 -3 -3 48 -3 47 60 0 c54 0 61 -2 61 -20z m148
12 c18 -12 32 -69 25 -103 -12 -61 -85 -79 -123 -31 -17 21 -21 36 -17 69 2
24 10 50 17 58 13 16 76 20 98 7z m269 -14 c29 -27 31 -86 4 -119 -14 -18 -31
-23 -80 -27 l-61 -4 0 86 0 86 57 0 c44 0 62 -5 80 -22z m103 -8 c0 -27 3 -30
30 -30 27 0 30 3 30 30 0 27 3 30 30 30 l31 0 -3 -82 c-3 -82 -3 -83 -30 -86
-26 -3 -28 -1 -28 33 0 34 -2 36 -27 33 -23 -2 -29 -8 -31 -35 -3 -27 -7 -33
-28 -33 -24 0 -24 2 -24 85 0 84 0 85 25 85 21 0 25 -5 25 -30z m-303 -347
c-3 -10 -5 -2 -5 17 0 19 2 27 5 18 2 -10 2 -26 0 -35z m-565 12 c3 -14 0 -29
-6 -34 -9 -7 -11 -1 -8 24 5 41 8 44 14 10z m138 -6 c8 -15 7 -19 -4 -19 -10
0 -13 6 -10 15 4 8 1 15 -5 15 -6 0 -11 5 -11 11 0 14 18 2 30 -22z m-80 11
c0 -5 -7 -7 -15 -4 -8 4 -15 8 -15 10 0 2 7 4 15 4 8 0 15 -4 15 -10z m170 0
c0 -5 -7 -7 -15 -4 -8 4 -15 8 -15 10 0 2 7 4 15 4 8 0 15 -4 15 -10z m166 -5
c4 -8 3 -23 0 -32 -6 -14 -8 -14 -22 5 -15 22 -12 42 7 42 5 0 12 -7 15 -15z
m114 -5 c7 -14 7 -20 0 -20 -5 0 -10 6 -10 14 0 8 -6 17 -12 19 -10 4 -10 6
-1 6 7 1 17 -8 23 -19z m143 14 c10 -10 -4 -34 -21 -34 -13 0 -12 3 4 16 19
15 18 15 -4 11 -12 -3 -20 -1 -16 4 6 10 28 12 37 3z m57 -14 c0 -14 -6 -20
-22 -19 -17 1 -19 2 -5 6 9 2 17 9 17 14 0 6 -4 7 -10 4 -5 -3 -10 -1 -10 4 0
6 7 11 15 11 8 0 15 -9 15 -20z m50 11 c0 -5 3 -16 6 -25 3 -9 1 -16 -5 -16
-6 0 -11 9 -11 19 0 11 -6 22 -12 24 -8 3 -6 6 5 6 9 1 17 -3 17 -8z m55 -12
c0 -7 -8 -15 -17 -17 -18 -3 -25 18 -11 32 10 10 28 1 28 -15z m-641 -4 c3 -8
1 -15 -4 -15 -6 0 -10 7 -10 15 0 8 2 15 4 15 2 0 6 -7 10 -15z m157 -18 l-24
-22 19 27 c10 14 21 24 23 22 3 -3 -6 -15 -18 -27z m91 -9 c-6 -6 -7 0 -4 19
5 21 7 23 10 9 2 -10 0 -22 -6 -28z m42 27 c3 -9 0 -15 -9 -15 -9 0 -12 6 -9
15 4 8 7 15 9 15 2 0 5 -7 9 -15z m-500 -21 c3 -8 2 -12 -4 -9 -6 3 -10 10
-10 16 0 14 7 11 14 -7z m671 -33 c-6 -5 -25 10 -25 20 0 5 6 4 14 -3 8 -7 12
-15 11 -17z m-135 -341 c-13 -9 -13 -12 3 -21 25 -15 22 -39 -5 -38 -17 1 -19
2 -5 6 21 6 22 12 0 28 -17 12 -11 35 10 35 7 0 6 -4 -3 -10z m61 1 c-12 -8
-12 -12 2 -26 19 -19 14 -35 -11 -35 -15 0 -15 2 -2 10 13 8 12 11 -4 23 -21
16 -14 37 12 37 14 0 14 -2 3 -9z m74 -26 c0 -23 -5 -31 -22 -33 -20 -3 -23 1
-23 33 0 32 3 36 23 33 17 -2 22 -10 22 -33z m175 0 c0 -14 5 -25 10 -25 6 0
10 8 10 18 0 13 2 14 9 4 6 -10 10 -10 21 3 17 21 37 19 50 -5 13 -25 30 -26
31 -2 1 16 2 16 6 0 2 -10 11 -18 19 -18 8 0 15 8 15 18 1 16 2 16 6 0 2 -10
9 -18 14 -18 5 0 9 8 9 18 1 16 1 16 11 0 12 -22 26 -23 32 -3 4 11 4 10 3 -2
-1 -16 -14 -18 -131 -18 l-130 0 -3 28 c-2 15 1 27 7 27 6 0 11 -11 11 -25z
m277 -22 c-3 -10 -5 -2 -5 17 0 19 2 27 5 18 2 -10 2 -26 0 -35z m143 12 c-26
-26 -37 -32 -47 -24 -7 6 -13 16 -13 21 0 7 5 6 13 -1 11 -8 19 -5 37 14 13
14 28 25 34 25 5 0 -5 -16 -24 -35z m-1043 5 c7 -25 31 -27 29 -2 -1 21 35 23
42 2 5 -13 3 -13 -12 -1 -9 8 -19 11 -23 7 -9 -8 -2 -13 30 -21 21 -6 27 -4
27 9 0 9 5 16 11 16 6 0 8 -7 5 -16 -3 -9 -6 -18 -6 -20 0 -2 -29 -4 -64 -4
-65 0 -83 9 -72 35 8 21 27 18 33 -5z m530 0 c7 -26 19 -26 26 1 7 26 32 20
32 -7 0 -15 -8 -20 -39 -22 -43 -4 -62 8 -53 32 9 22 28 20 34 -4z m-371 -20
c8 0 14 6 15 13 0 10 2 10 6 0 7 -19 23 -16 23 5 1 16 1 16 11 0 12 -21 26
-23 32 -5 2 7 3 6 3 -3 -1 -11 -15 -16 -51 -18 -28 -2 -54 -7 -59 -13 -6 -5
-21 -9 -35 -8 l-26 1 25 7 c16 4 26 16 29 31 3 19 5 20 8 8 3 -10 11 -18 19
-18z m-451 -180 c0 -27 -2 -35 -8 -24 -7 13 -2 64 6 64 1 0 2 -18 2 -40z m99
18 c8 -14 7 -21 -6 -34 -24 -24 -48 -11 -48 26 0 26 3 31 21 28 12 -2 27 -11
33 -20z m337 -19 c-9 -23 -10 -22 -10 11 -1 23 2 31 9 24 7 -7 7 -19 1 -35z
m39 5 c0 -31 -2 -35 -15 -24 -17 14 -21 35 -5 25 6 -3 10 3 10 14 0 12 2 21 5
21 3 0 5 -16 5 -36z m230 -4 c0 -16 -3 -31 -7 -33 -5 -3 -8 12 -8 33 0 21 3
36 8 33 4 -2 7 -17 7 -33z m100 0 c0 -28 -5 -43 -16 -47 -19 -7 -51 21 -35 31
6 4 11 0 11 -9 0 -33 25 -8 28 28 4 49 12 47 12 -3z m54 -15 c25 0 32 22 9 28
-16 4 -16 5 -1 6 9 0 24 -8 32 -20 15 -22 36 -18 36 7 0 18 26 18 33 0 10 -24
-17 -35 -79 -33 l-59 2 -2 35 c-1 34 -1 34 5 5 5 -20 13 -30 26 -30z m479 13
c-30 -30 -63 -34 -63 -7 0 8 4 9 13 0 10 -8 20 -4 42 19 16 16 31 27 34 25 3
-3 -9 -20 -26 -37z m-146 -5 c-3 -10 -5 -4 -5 12 0 17 2 24 5 18 2 -7 2 -21 0
-30z m-1039 5 c-2 -13 -10 -23 -18 -23 -8 0 -16 10 -18 23 -3 17 2 22 18 22
16 0 21 -5 18 -22z m91 -5 c-2 -24 -2 -25 -6 -5 -5 26 -22 30 -24 5 -1 -17 -2
-17 -6 0 -5 21 -23 23 -23 2 0 -8 -4 -15 -10 -15 -11 0 -14 23 -3 33 3 4 21 7
40 7 30 0 33 -3 32 -27z m51 2 c0 -15 -6 -25 -14 -25 -18 0 -30 17 -17 24 5 4
12 0 14 -6 4 -8 6 -7 6 4 1 9 -5 19 -11 21 -8 3 -6 6 5 6 12 1 17 -7 17 -24z
m27 -7 c-3 -7 -5 -2 -5 12 0 14 2 19 5 13 2 -7 2 -19 0 -25z m61 7 c2 -18 2
-18 -8 -2 -6 9 -15 17 -20 17 -5 0 -11 -8 -13 -17 -3 -13 -5 -12 -6 5 -1 19 3
23 21 20 14 -2 24 -11 26 -23z m142 0 c0 -15 -6 -25 -14 -25 -18 0 -30 17 -17
24 5 4 12 0 14 -6 4 -8 6 -7 6 4 1 9 -5 19 -11 21 -8 3 -6 6 5 6 12 1 17 -7
17 -24z m89 3 c-1 -17 -2 -19 -6 -5 -6 24 -23 21 -24 -5 l-2 -23 -4 23 c-2 12
-8 22 -13 22 -5 0 -11 -10 -13 -22 -4 -20 -4 -19 -6 5 -1 25 2 27 34 27 30 0
35 -3 34 -22z m59 5 c2 -7 -4 -13 -15 -13 -15 0 -16 -2 -3 -11 13 -9 13 -10 0
-6 -8 2 -16 14 -18 26 -3 17 1 22 14 19 9 -1 19 -9 22 -15z m385 -5 c14 -21
16 -21 22 -5 7 17 8 17 21 0 13 -17 13 -17 14 1 0 19 0 19 14 1 13 -18 13 -18
25 1 11 18 12 18 9 -1 -3 -18 -12 -20 -76 -23 -59 -2 -72 -6 -73 -20 -1 -14
-2 -15 -6 -1 -5 19 13 69 26 69 4 0 15 -10 24 -22z m-636 -205 c-3 -10 -5 -2
-5 17 0 19 2 27 5 18 2 -10 2 -26 0 -35z m160 0 c-3 -10 -5 -2 -5 17 0 19 2
27 5 18 2 -10 2 -26 0 -35z m754 13 c-19 -19 -40 -32 -47 -29 -20 8 -17 22 4
16 10 -2 27 6 41 21 14 14 27 26 30 26 3 0 -10 -15 -28 -34z m-941 -6 c0 -13
-7 -20 -18 -20 -10 0 -23 -5 -29 -11 -15 -15 -58 -7 -59 11 0 9 1 10 3 3 9
-26 63 -3 63 26 0 6 9 11 20 11 13 0 20 -7 20 -20z m76 -10 c8 0 15 8 15 18 1
16 2 16 6 0 3 -11 14 -18 29 -18 28 0 32 16 7 23 -14 4 -12 5 5 6 16 1 22 -5
22 -19 0 -17 -7 -20 -44 -20 -25 0 -48 -4 -51 -10 -3 -5 -14 -10 -23 -9 -11 0
-12 3 -4 6 6 2 13 17 13 31 1 17 3 21 6 10 2 -10 11 -18 19 -18z m204 15 c0
-8 7 -15 15 -15 8 0 15 7 15 15 0 8 7 15 15 15 8 0 15 -9 15 -19 0 -17 -8 -20
-47 -23 -44 -3 -69 -21 -41 -31 8 -2 8 -4 -2 -3 -11 1 -15 12 -13 36 1 19 2
36 2 38 4 10 41 -1 41 -13z m120 0 c0 -8 5 -15 10 -15 6 0 10 7 10 15 0 8 9
15 20 15 13 0 20 -7 20 -20 0 -15 -7 -20 -29 -20 -17 0 -33 -4 -36 -10 -3 -5
-11 -10 -16 -10 -6 0 -7 5 -4 10 3 6 1 10 -4 10 -6 0 -11 9 -11 20 0 13 7 20
20 20 11 0 20 -7 20 -15z m146 0 c8 -20 24 -19 25 3 1 16 2 16 6 0 5 -22 33
-24 33 -3 0 8 9 15 20 15 11 0 20 -7 20 -15 0 -8 7 -15 15 -15 8 0 15 6 15 13
0 9 2 9 9 -1 7 -11 9 -11 14 2 8 20 46 21 53 1 8 -21 32 -19 37 3 4 15 5 15 6
0 0 -9 -3 -19 -8 -23 -6 -3 -71 -6 -145 -6 -117 0 -137 -2 -146 -17 -10 -15
-11 -15 -5 3 4 11 10 28 12 38 6 21 32 23 39 2z m-509 -212 c-3 -10 -5 -2 -5
17 0 19 2 27 5 18 2 -10 2 -26 0 -35z m170 0 c-3 -10 -5 -2 -5 17 0 19 2 27 5
18 2 -10 2 -26 0 -35z m223 20 c0 -20 -7 -31 -27 -40 -15 -7 -29 -11 -31 -8
-3 3 1 5 8 5 9 0 8 5 -5 14 -11 8 -16 19 -12 30 9 22 28 20 34 -4 7 -28 23
-25 23 5 0 14 2 25 5 25 3 0 5 -12 5 -27z m510 -8 c-26 -26 -37 -32 -47 -24
-7 6 -13 16 -13 21 0 7 5 6 13 -1 11 -8 19 -5 37 14 13 14 28 25 34 25 5 0 -5
-16 -24 -35z m-922 2 c2 -10 -5 -20 -15 -23 -10 -3 -28 -11 -40 -16 -28 -13
-53 -4 -52 19 1 17 2 17 6 1 5 -19 33 -25 33 -8 0 6 6 10 14 10 7 0 16 9 19
21 6 24 30 21 35 -4z m146 17 c9 -3 16 -12 16 -19 0 -16 -23 -25 -65 -25 -19
0 -37 -4 -40 -10 -3 -5 -11 -10 -18 -10 -8 0 -8 3 1 12 7 7 13 21 13 33 1 16
2 17 6 3 2 -10 8 -18 13 -18 5 0 14 8 19 18 10 16 10 16 11 -1 0 -13 6 -17 23
-15 12 2 20 8 17 13 -3 6 -8 9 -12 8 -5 -2 -8 2 -8 7 0 12 3 12 24 4z m123
-14 c3 -11 9 -20 13 -20 4 0 10 9 13 20 3 11 11 20 19 19 10 0 10 -2 1 -6 -19
-7 -16 -31 5 -36 9 -3 3 -5 -15 -6 -17 0 -35 -5 -38 -11 -3 -5 -11 -10 -17
-10 -6 0 -8 3 -5 7 4 3 2 12 -4 19 -13 16 -5 44 12 44 6 0 13 -9 16 -20z m258
0 c8 -25 25 -26 25 -2 1 16 1 16 11 0 13 -24 25 -23 32 2 3 11 10 20 17 20 7
0 14 -9 17 -20 6 -23 14 -25 31 -8 7 7 12 8 12 3 0 -4 9 0 20 10 21 19 50 14
50 -10 0 -20 16 -19 30 3 10 15 10 15 8 -3 -3 -19 -12 -20 -143 -23 -117 -2
-142 -5 -152 -19 -18 -24 -16 -2 3 35 18 37 30 40 39 12z m-854 -215 c6 -6 12
-2 15 13 8 29 37 30 32 1 -2 -16 -11 -23 -31 -25 -16 -1 -35 -8 -43 -15 -11
-9 -17 -9 -29 1 -8 7 -15 18 -14 24 0 7 2 6 6 -1 2 -7 13 -13 24 -13 15 0 19
8 20 38 1 27 3 30 6 12 3 -14 9 -29 14 -35z m89 1 c5 -5 17 -5 27 -2 17 7 17
8 0 20 -16 13 -16 14 0 27 9 8 14 9 11 4 -4 -6 2 -22 13 -35 l19 -25 0 28 c0
15 5 27 10 27 14 0 12 -37 -2 -47 -15 -9 -56 -13 -80 -6 -13 3 -18 14 -17 36
2 27 2 28 6 7 3 -14 9 -29 13 -34z m125 1 c5 1 12 10 16 20 7 16 8 15 8 -4 1
-12 -4 -25 -9 -28 -17 -11 -40 15 -39 44 1 25 2 25 8 -4 3 -16 10 -29 16 -28z
m581 45 c-2 -4 4 -19 14 -32 20 -26 22 -24 33 25 3 12 5 7 6 -12 0 -18 -2 -33
-6 -34 -5 -1 -33 -2 -64 -4 -31 -1 -63 -6 -70 -11 -23 -14 -50 -12 -45 3 3 7
1 13 -4 13 -6 0 -10 9 -10 20 0 23 29 28 31 5 3 -31 4 -35 14 -37 5 -2 12 11
15 27 l6 30 8 -25 c7 -20 9 -22 13 -7 6 21 23 23 23 2 0 -8 9 -15 20 -15 21 0
28 26 8 32 -10 4 -4 28 8 28 3 0 3 -4 0 -8z m81 -39 c-3 -10 -5 -2 -5 17 0 19
2 27 5 18 2 -10 2 -26 0 -35z m376 5 c-20 -19 -37 -29 -47 -25 -22 9 -20 26 2
20 10 -2 27 6 41 21 14 14 27 24 30 21 3 -3 -9 -20 -26 -37z m-880 0 c4 -12
12 -18 23 -16 24 4 29 25 7 31 -14 4 -12 5 5 6 16 1 26 -6 29 -19 3 -11 10
-20 15 -20 5 0 12 9 15 20 6 22 28 27 39 9 13 -22 -18 -33 -105 -35 -49 -1
-100 -8 -113 -14 -19 -10 -21 -10 -10 1 6 7 13 24 13 39 1 16 3 19 6 8 6 -23
15 -23 31 2 14 23 38 17 45 -12z m257 2 c0 -24 -41 -53 -64 -44 -9 3 -16 13
-16 22 0 13 2 13 13 -2 13 -18 14 -18 35 0 12 10 22 24 22 31 0 7 2 13 5 13 3
0 5 -9 5 -20z m373 -2 l15 -23 10 25 c7 17 11 19 11 8 1 -26 22 -33 28 -9 6
24 31 28 40 6 9 -25 -2 -29 -87 -30 -46 -1 -85 -7 -94 -14 -13 -11 -13 -9 -3
18 9 24 13 27 22 15 6 -9 18 -12 28 -8 22 8 22 21 0 27 -15 4 -15 5 -2 6 9 0
23 -9 32 -21z m-663 -158 c-12 -8 -12 -11 3 -28 18 -20 14 -32 -12 -32 -14 0
-14 2 -1 10 13 8 12 11 -4 23 -21 16 -14 37 12 37 14 0 15 -2 2 -10z m56 -1
c-15 -9 -16 -13 -5 -20 10 -6 11 -9 2 -9 -19 0 -16 -18 5 -23 13 -4 11 -5 -5
-6 -19 -1 -23 4 -23 27 0 33 7 42 29 42 13 -1 12 -3 -3 -11z m77 -11 c14 -21
2 -48 -22 -48 -24 0 -37 36 -20 56 14 17 28 14 42 -8z m-178 -22 c0 -19 -3
-32 -7 -29 -14 8 -8 63 6 63 1 0 1 -15 1 -34z m217 -20 c-8 -18 -10 -16 -9 17
1 28 3 33 10 21 6 -10 5 -24 -1 -38z m264 8 c-4 -11 -26 -14 -90 -14 -47 0
-88 -4 -91 -10 -3 -5 -14 -10 -23 -10 -15 0 -15 2 -2 10 10 6 11 10 3 10 -15
0 -17 36 -3 45 5 3 15 -3 22 -15 16 -25 28 -26 29 -2 1 16 2 16 6 0 5 -20 33
-24 34 -5 0 10 2 10 6 0 7 -19 23 -16 23 5 1 16 1 16 11 0 5 -10 14 -18 19
-18 6 0 11 8 11 18 1 16 2 16 6 -1 6 -25 27 -16 32 14 3 19 5 20 9 6 2 -10 1
-25 -2 -33z m34 21 c0 -29 16 -34 23 -7 4 13 5 11 6 -5 1 -27 -33 -33 -43 -7
-9 24 -7 44 4 44 6 0 10 -11 10 -25z m470 22 c0 -2 -15 -18 -33 -35 -31 -31
-35 -32 -48 -16 -12 16 -12 17 2 12 11 -4 25 3 40 18 19 21 39 31 39 21z
m-310 -27 c11 -21 44 -27 55 -11 3 5 -3 12 -12 14 -17 4 -17 5 0 6 10 0 20 -6
23 -14 4 -8 12 -15 20 -15 8 0 14 7 14 15 0 9 9 15 21 15 14 0 19 -5 17 -17
-3 -16 -17 -18 -103 -21 -54 -1 -105 -8 -112 -14 -7 -6 -16 -8 -20 -4 -3 3 -1
6 5 6 7 0 13 12 13 28 1 16 3 20 6 10 6 -23 15 -23 31 2 7 11 16 20 22 20 5 0
14 -9 20 -20z m-433 -212 c-2 -13 -4 -5 -4 17 -1 22 1 32 4 23 2 -10 2 -28 0
-40z m-152 -8 c7 0 12 8 11 17 -2 26 34 29 41 4 7 -29 19 -26 31 7 l10 27 1
-27 c1 -35 18 -37 24 -3 4 23 4 23 3 -2 -1 -28 -2 -28 -71 -28 -68 0 -70 1
-71 25 -1 22 0 22 3 3 2 -13 10 -23 18 -23z m868 19 c-30 -31 -63 -35 -63 -8
0 8 4 9 13 0 11 -8 19 -5 37 14 13 14 28 25 34 25 6 0 -4 -14 -21 -31z m-573
-19 c4 0 10 9 13 21 6 24 37 23 45 -1 5 -13 3 -13 -12 -1 -9 8 -19 11 -23 7
-9 -8 -2 -13 30 -21 22 -6 27 -4 27 11 1 18 1 18 11 2 13 -24 25 -23 32 3 7
26 32 20 32 -7 0 -17 -9 -19 -105 -22 -65 -1 -100 1 -91 7 8 5 11 17 8 27 -5
14 -2 13 9 -3 9 -13 20 -23 24 -23z m247 20 c3 -11 9 -20 13 -20 4 0 10 9 13
20 7 29 39 26 35 -2 -3 -20 -10 -23 -50 -26 -50 -3 -60 -14 -30 -32 15 -10 15
-10 -3 -8 -15 3 -20 11 -21 38 0 19 1 38 3 43 8 15 35 6 40 -13z m123 -2 l9
-23 7 23 c8 28 39 26 39 -3 0 -15 -8 -21 -32 -23 -18 -2 -33 -7 -33 -13 0 -5
-5 -9 -11 -9 -5 0 -8 4 -4 9 3 5 1 12 -5 16 -16 10 -12 45 5 45 9 0 20 -10 25
-22z m-713 -13 c-8 -20 -63 -20 -71 0 -3 8 -1 15 4 15 6 0 10 -4 10 -10 0 -5
11 -10 25 -10 17 0 25 6 25 17 0 9 3 14 6 10 4 -3 4 -13 1 -22z m276 0 c-3 -8
-13 -15 -22 -14 -10 0 -11 2 -3 6 6 2 12 11 12 19 0 9 4 13 10 9 5 -3 7 -12 3
-20z m-163 -195 c5 0 11 6 13 13 4 9 8 8 16 -3 10 -13 13 -13 22 3 12 21 35
22 43 2 3 -8 10 -15 16 -15 5 0 10 7 10 15 0 8 9 15 20 15 13 0 20 -7 20 -20
0 -21 2 -21 -102 -24 -71 -3 -78 1 -77 38 2 30 2 30 6 4 2 -16 8 -28 13 -28z
m347 3 c-3 -10 -5 -2 -5 17 0 19 2 27 5 18 2 -10 2 -26 0 -35z m452 8 c-17
-18 -38 -30 -45 -27 -21 8 -17 25 4 19 10 -2 27 6 41 21 14 14 26 24 28 22 2
-2 -10 -18 -28 -35z m-871 -4 c2 -12 -3 -17 -17 -17 -15 0 -21 6 -21 21 0 25
33 22 38 -4z m32 -7 c0 -22 -5 -30 -17 -29 -11 0 -13 3 -5 6 6 2 12 16 12 29
0 13 2 24 5 24 3 0 5 -13 5 -30z m360 11 c0 -13 -10 -21 -32 -25 -61 -13 -82
-12 -84 4 0 9 1 10 3 3 7 -22 33 -14 33 9 0 17 3 19 12 10 16 -16 28 -15 28 3
0 8 9 15 20 15 13 0 20 -7 20 -19z m80 -11 c0 -21 -5 -30 -17 -30 -9 0 -13 3
-10 7 4 3 2 12 -4 19 -13 16 -4 34 17 34 9 0 14 -11 14 -30z m80 15 c0 -8 5
-15 10 -15 6 0 10 7 10 15 0 8 8 15 18 14 10 0 12 -3 5 -6 -18 -7 -16 -23 2
-23 8 0 15 -4 15 -10 0 -21 20 -9 21 13 0 12 3 16 6 10 2 -7 11 -13 19 -13 8
0 14 6 15 13 0 10 2 10 6 0 2 -7 11 -13 19 -13 8 0 14 6 15 13 0 10 2 10 6 0
7 -18 21 -16 26 5 4 13 5 11 6 -5 1 -18 -5 -23 -26 -24 -16 -1 -31 -1 -35 0
-4 0 -19 -3 -32 -9 -16 -6 -47 -5 -86 1 -48 9 -60 15 -60 30 0 12 7 19 20 19
11 0 20 -7 20 -15z m-1000 -192 c0 -16 -4 -34 -9 -41 -12 -20 -45 -10 -49 13
-2 18 -2 19 8 3 17 -28 30 -21 30 17 0 19 5 35 10 35 6 0 10 -12 10 -27z m37
-20 c6 -2 13 5 16 17 7 26 23 26 37 0 12 -23 30 -27 30 -6 0 8 4 17 9 20 12 8
41 -4 41 -16 0 -6 -7 -5 -15 2 -9 7 -18 10 -22 6 -9 -8 -2 -13 30 -21 22 -6
27 -4 27 11 0 17 1 16 15 -2 12 -15 16 -16 24 -5 7 10 10 11 16 1 6 -10 11 -9
22 5 12 17 13 17 13 2 0 -22 17 -22 23 1 4 13 5 11 6 -6 l1 -23 -147 3 -148 3
-2 30 c-2 27 -1 28 5 6 4 -14 12 -26 19 -28z m339 1 c-3 -8 -14 -14 -24 -14
-16 0 -18 5 -13 28 5 25 6 25 9 5 5 -32 22 -29 23 5 1 17 3 21 6 9 3 -10 2
-25 -1 -33z m31 -1 c-3 -10 -5 -2 -5 17 0 19 2 27 5 18 2 -10 2 -26 0 -35z
m122 -3 c5 0 11 9 14 20 3 11 13 20 22 20 9 0 19 -9 22 -20 6 -22 33 -28 33
-7 0 8 4 7 10 -3 9 -13 11 -13 21 0 8 11 12 12 16 3 7 -18 21 -16 26 2 4 11 4
10 3 -2 -1 -16 -15 -18 -115 -21 -115 -3 -145 5 -134 34 8 21 30 17 36 -7 7
-26 26 -16 28 14 2 17 3 16 6 -5 2 -16 8 -28 12 -28z m341 0 c26 0 34 17 13
29 -20 12 -13 14 11 5 9 -3 16 -12 16 -20 0 -19 27 -18 33 1 4 11 4 10 3 -2
-1 -16 -14 -18 -96 -21 -52 -2 -96 -7 -98 -12 -2 -6 -8 -10 -12 -10 -13 0 15
63 30 68 6 2 14 -5 17 -17 3 -12 13 -21 24 -21 21 0 26 16 7 22 -7 3 -8 9 -3
18 6 10 11 6 22 -14 7 -14 22 -26 33 -26z m310 24 c0 -17 -6 -28 -20 -31 -11
-3 -20 -9 -20 -14 0 -5 -8 -9 -17 -8 -11 0 -13 3 -6 6 10 3 9 8 -2 20 -12 12
-13 18 -4 29 16 20 26 17 32 -7 7 -25 27 -16 27 12 0 10 2 19 5 19 3 0 5 -12
5 -26z m140 -9 c-26 -26 -37 -32 -47 -24 -7 6 -13 16 -13 21 0 7 5 6 13 -1 11
-8 19 -5 37 14 13 14 28 25 34 25 5 0 -5 -16 -24 -35z m-290 5 c0 -13 7 -20
19 -20 27 0 35 17 14 29 -20 12 -13 14 11 5 42 -16 0 -49 -51 -41 -29 4 -37
13 -30 32 9 22 37 19 37 -5z m-850 -167 c-1 -13 -29 -59 -29 -48 -1 6 3 17 9
25 6 9 5 17 -3 22 -8 5 -6 8 6 8 9 0 17 -3 17 -7z m80 0 c-1 -5 -7 -19 -15
-33 l-15 -25 6 28 c4 16 2 27 -5 27 -6 0 -17 -12 -25 -27 -18 -33 -21 -25 -4
12 7 16 19 25 35 25 12 0 23 -3 23 -7z m167 -40 c-3 -10 -5 -2 -5 17 0 19 2
27 5 18 2 -10 2 -26 0 -35z m173 17 c0 -16 -4 -30 -10 -30 -11 0 -14 43 -3 53
11 12 13 8 13 -23z m733 -12 c-30 -30 -63 -34 -63 -7 0 8 4 9 13 0 10 -8 20
-4 42 19 16 16 31 27 34 25 3 -3 -9 -20 -26 -37z m-928 2 c0 -18 -69 -52 -90
-44 -8 3 -15 14 -15 23 1 14 2 14 11 -1 9 -17 12 -17 34 -2 14 9 25 23 25 31
0 8 7 13 18 11 9 -2 17 -10 17 -18z m161 8 c10 -16 -27 -40 -51 -34 -12 3 -34
-2 -50 -10 -19 -9 -25 -10 -17 -3 6 7 13 22 13 34 1 16 2 17 6 3 6 -23 23 -23
23 -1 0 15 1 15 13 -1 10 -13 20 -16 35 -12 26 9 29 23 5 29 -16 4 -16 5 -1 6
9 0 20 -4 24 -11z m84 -17 c0 -17 -6 -31 -16 -35 -9 -4 -13 -2 -8 5 4 6 1 15
-6 19 -17 10 -5 40 15 40 10 0 15 -10 15 -29z m83 7 c13 27 37 29 44 2 7 -25
23 -26 23 -2 1 16 1 16 11 0 5 -10 14 -18 19 -18 6 0 10 8 10 18 1 15 2 15 12
-2 11 -19 11 -19 24 -1 13 17 14 17 14 2 0 -9 5 -17 10 -17 6 0 10 8 10 17 0
15 2 15 14 -2 13 -18 14 -18 25 3 16 30 43 29 39 0 -3 -23 -6 -23 -140 -24
-100 0 -142 -4 -155 -14 -15 -12 -16 -12 -5 0 6 8 12 25 13 40 l0 25 11 -25
10 -25 11 23z m344 2 c3 -11 9 -20 13 -20 4 0 10 9 13 20 3 11 11 20 19 20 10
0 9 -3 -2 -10 -13 -9 -12 -12 5 -25 18 -14 16 -15 -29 -14 -32 2 -51 -2 -56
-12 -5 -7 -12 -10 -16 -6 -4 4 -2 13 4 19 7 7 12 20 12 30 0 25 31 23 37 -2z
m110 -14 c-4 -9 -12 -16 -18 -16 -8 0 -8 4 1 15 6 8 8 20 4 27 -5 10 -4 10 6
1 7 -6 10 -19 7 -27z m247 -318 c13 -18 16 -53 16 -174 0 -135 -2 -154 -19
-175 l-19 -24 -937 0 -937 0 -19 24 c-17 21 -19 40 -19 175 0 121 3 156 16
174 l15 22 944 0 944 0 15 -22z"/>
<path d="M870 3840 c0 -5 14 -10 30 -10 17 0 30 5 30 10 0 6 -13 10 -30 10
-16 0 -30 -4 -30 -10z"/>
<path d="M1238 3813 c7 -3 16 -2 19 1 4 3 -2 6 -13 5 -11 0 -14 -3 -6 -6z"/>
<path d="M1228 3783 c6 -2 18 -2 25 0 6 3 1 5 -13 5 -14 0 -19 -2 -12 -5z"/>
<path d="M1114 3336 c-9 -37 -1 -70 19 -74 14 -3 17 4 17 47 0 38 -4 51 -15
51 -8 0 -17 -11 -21 -24z"/>
<path d="M1370 3311 c0 -35 3 -41 21 -41 17 0 20 5 17 37 -2 27 -8 39 -20 41
-15 3 -18 -4 -18 -37z"/>
<path d="M1050 3020 c0 -5 5 -10 10 -10 6 0 10 5 10 10 0 6 -4 10 -10 10 -5 0
-10 -4 -10 -10z"/>
<path d="M1470 3020 c0 -5 5 -10 10 -10 6 0 10 5 10 10 0 6 -4 10 -10 10 -5 0
-10 -4 -10 -10z"/>
<path d="M1280 2595 c0 -17 5 -25 13 -22 6 2 12 12 12 22 0 10 -6 20 -12 23
-8 2 -13 -6 -13 -23z"/>
<path d="M1550 2585 c-10 -13 -9 -15 9 -15 12 0 21 6 21 15 0 8 -4 15 -9 15
-5 0 -14 -7 -21 -15z"/>
<path d="M841 2584 c0 -11 3 -14 6 -6 3 7 2 16 -1 19 -3 4 -6 -2 -5 -13z"/>
<path d="M1371 2584 c0 -11 3 -14 6 -6 3 7 2 16 -1 19 -3 4 -6 -2 -5 -13z"/>
<path d="M1430 2586 c0 -9 5 -16 10 -16 6 0 10 4 10 9 0 6 -4 13 -10 16 -5 3
-10 -1 -10 -9z"/>
<path d="M640 2394 c0 -14 4 -23 10 -19 6 3 10 15 10 26 0 10 -4 19 -10 19 -5
0 -10 -12 -10 -26z"/>
<path d="M1521 2384 c0 -11 3 -14 6 -6 3 7 2 16 -1 19 -3 4 -6 -2 -5 -13z"/>
<path d="M700 2385 c0 -8 5 -15 10 -15 6 0 10 7 10 15 0 8 -4 15 -10 15 -5 0
-10 -7 -10 -15z"/>
<path d="M1600 2390 c0 -5 5 -10 10 -10 6 0 10 5 10 10 0 6 -4 10 -10 10 -5 0
-10 -4 -10 -10z"/>
<path d="M940 2190 c0 -5 5 -10 10 -10 6 0 10 5 10 10 0 6 -4 10 -10 10 -5 0
-10 -4 -10 -10z"/>
<path d="M1215 2190 c4 -6 11 -8 16 -5 14 9 11 15 -7 15 -8 0 -12 -5 -9 -10z"/>
<path d="M1340 2190 c0 -5 5 -10 10 -10 6 0 10 5 10 10 0 6 -4 10 -10 10 -5 0
-10 -4 -10 -10z"/>
<path d="M1400 2190 c0 -5 5 -10 10 -10 6 0 10 5 10 10 0 6 -4 10 -10 10 -5 0
-10 -4 -10 -10z"/>
<path d="M1590 2190 c0 -5 5 -10 10 -10 6 0 10 5 10 10 0 6 -4 10 -10 10 -5 0
-10 -4 -10 -10z"/>
<path d="M1685 2190 c-3 -5 3 -10 14 -10 12 0 21 5 21 10 0 6 -6 10 -14 10 -8
0 -18 -4 -21 -10z"/>
<path d="M1345 1990 c3 -5 8 -10 11 -10 2 0 4 5 4 10 0 6 -5 10 -11 10 -5 0
-7 -4 -4 -10z"/>
<path d="M960 1994 c0 -8 5 -12 10 -9 6 4 8 11 5 16 -9 14 -15 11 -15 -7z"/>
<path d="M1230 1996 c0 -9 5 -16 10 -16 6 0 10 4 10 9 0 6 -4 13 -10 16 -5 3
-10 -1 -10 -9z"/>
<path d="M1490 1994 c0 -8 5 -12 10 -9 6 4 8 11 5 16 -9 14 -15 11 -15 -7z"/>
<path d="M1693 2003 c-20 -7 -15 -23 7 -23 11 0 20 4 20 9 0 13 -12 19 -27 14z"/>
<path d="M1590 1990 c0 -5 5 -10 10 -10 6 0 10 5 10 10 0 6 -4 10 -10 10 -5 0
-10 -4 -10 -10z"/>
<path d="M691 1794 c0 -11 3 -14 6 -6 3 7 2 16 -1 19 -3 4 -6 -2 -5 -13z"/>
<path d="M1140 1800 c0 -5 5 -10 10 -10 6 0 10 5 10 10 0 6 -4 10 -10 10 -5 0
-10 -4 -10 -10z"/>
<path d="M1740 1800 c0 -5 5 -10 10 -10 6 0 10 5 10 10 0 6 -4 10 -10 10 -5 0
-10 -4 -10 -10z"/>
<path d="M1106 1633 c-12 -12 -6 -43 9 -43 8 0 15 9 15 19 0 21 -13 34 -24 24z"/>
<path d="M1230 1600 c0 -5 5 -10 10 -10 6 0 10 5 10 10 0 6 -4 10 -10 10 -5 0
-10 -4 -10 -10z"/>
<path d="M1611 1604 c0 -11 3 -14 6 -6 3 7 2 16 -1 19 -3 4 -6 -2 -5 -13z"/>
<path d="M1740 1600 c0 -5 5 -10 10 -10 6 0 10 5 10 10 0 6 -4 10 -10 10 -5 0
-10 -4 -10 -10z"/>
<path d="M1060 1410 c0 -5 7 -10 15 -10 8 0 15 5 15 10 0 6 -7 10 -15 10 -8 0
-15 -4 -15 -10z"/>
<path d="M1470 1410 c0 -5 5 -10 10 -10 6 0 10 5 10 10 0 6 -4 10 -10 10 -5 0
-10 -4 -10 -10z"/>
<path d="M1550 1410 c0 -5 7 -10 15 -10 8 0 15 5 15 10 0 6 -7 10 -15 10 -8 0
-15 -4 -15 -10z"/>
<path d="M1625 1411 c-3 -5 -1 -12 5 -16 5 -3 10 1 10 9 0 18 -6 21 -15 7z"/>
<path d="M1680 1404 c0 -8 5 -12 10 -9 6 4 8 11 5 16 -9 14 -15 11 -15 -7z"/>
<path d="M1740 1404 c0 -8 5 -12 10 -9 6 3 10 10 10 16 0 5 -4 9 -10 9 -5 0
-10 -7 -10 -16z"/>
<path d="M1170 1211 c0 -6 5 -13 10 -16 6 -3 10 1 10 9 0 9 -4 16 -10 16 -5 0
-10 -4 -10 -9z"/>
<path d="M1240 1210 c0 -5 5 -10 10 -10 6 0 10 5 10 10 0 6 -4 10 -10 10 -5 0
-10 -4 -10 -10z"/>
<path d="M1010 1210 c0 -5 5 -10 10 -10 6 0 10 5 10 10 0 6 -4 10 -10 10 -5 0
-10 -4 -10 -10z"/>
<path d="M1400 1210 c0 -5 5 -10 10 -10 6 0 10 5 10 10 0 6 -4 10 -10 10 -5 0
-10 -4 -10 -10z"/>
<path d="M1480 1210 c0 -5 5 -10 10 -10 6 0 10 5 10 10 0 6 -4 10 -10 10 -5 0
-10 -4 -10 -10z"/>
<path d="M656 1021 c-4 -7 -5 -15 -2 -18 9 -9 19 4 14 18 -4 11 -6 11 -12 0z"/>
<path d="M1045 1021 c-3 -5 -1 -12 5 -16 5 -3 10 1 10 9 0 18 -6 21 -15 7z"/>
<path d="M1145 1019 c-4 -6 -4 -13 -1 -16 3 -4 6 0 6 8 0 11 2 11 10 -1 8 -13
10 -12 10 3 0 19 -15 23 -25 6z"/>
<path d="M1350 1014 c0 -8 5 -12 10 -9 6 4 8 11 5 16 -9 14 -15 11 -15 -7z"/>
<path d="M1711 1014 c0 -11 3 -14 6 -6 3 7 2 16 -1 19 -3 4 -6 -2 -5 -13z"/>
<path d="M1590 1014 c0 -8 5 -12 10 -9 6 4 8 11 5 16 -9 14 -15 11 -15 -7z"/>
<path d="M970 820 c0 -5 5 -10 11 -10 5 0 7 5 4 10 -3 6 -8 10 -11 10 -2 0 -4
-4 -4 -10z"/>
<path d="M1210 820 c0 -5 5 -10 10 -10 6 0 10 5 10 10 0 6 -4 10 -10 10 -5 0
-10 -4 -10 -10z"/>
<path d="M1340 814 c0 -8 5 -12 10 -9 6 4 8 11 5 16 -9 14 -15 11 -15 -7z"/>
<path d="M1550 820 c0 -5 5 -10 10 -10 6 0 10 5 10 10 0 6 -4 10 -10 10 -5 0
-10 -4 -10 -10z"/>
<path d="M1640 820 c0 -5 5 -10 10 -10 6 0 10 5 10 10 0 6 -4 10 -10 10 -5 0
-10 -4 -10 -10z"/>
<path d="M1330 370 c0 -5 7 -10 15 -10 8 0 15 5 15 10 0 6 -7 10 -15 10 -8 0
-15 -4 -15 -10z"/>
<path d="M766 358 c-4 -9 -6 -25 -4 -35 3 -16 15 -18 108 -18 101 0 105 1 108
23 3 17 -2 22 -17 22 -12 0 -21 -6 -21 -15 0 -8 -6 -15 -14 -15 -8 0 -16 7
-20 15 -3 8 -15 15 -26 15 -11 0 -20 -7 -20 -15 0 -21 -30 -19 -30 3 -1 16 -1
16 -14 0 -19 -26 -34 -22 -38 10 -3 22 -6 24 -12 10z"/>
<path d="M1080 335 c0 -24 -5 -35 -15 -35 -8 0 -15 7 -15 16 0 8 -4 12 -10 9
-15 -9 -12 -35 6 -42 8 -3 25 -1 37 5 12 7 47 13 77 14 48 3 55 6 58 26 3 18
-1 22 -22 22 -14 0 -27 -4 -31 -10 -3 -5 -12 -7 -20 -3 -8 3 -15 0 -15 -6 0
-6 -7 -11 -15 -11 -9 0 -15 9 -15 25 0 14 -4 25 -10 25 -5 0 -10 -16 -10 -35z
m120 -5 c0 -5 -5 -10 -11 -10 -5 0 -7 5 -4 10 3 6 8 10 11 10 2 0 4 -4 4 -10z"/>
<path d="M1247 363 c-11 -10 -8 -63 3 -63 6 0 10 16 10 35 0 36 -2 40 -13 28z"/>
<path d="M1283 315 c2 -37 7 -41 35 -26 9 5 25 12 35 15 18 6 24 46 7 46 -5 0
-10 -7 -10 -15 0 -8 -7 -15 -15 -15 -8 0 -15 7 -15 15 0 8 -9 15 -20 15 -17 0
-20 -6 -17 -35z"/>
</g>
</svg>
