<svg xmlns="http://www.w3.org/2000/svg" viewBox="0 0 200 132"><g id="Layer_2" data-name="Layer 2"><g id="Layer_1-2" data-name="Layer 1"><path d="M200,22v94a16,16,0,0,1-4.71,11.31,16.15,16.15,0,0,1-11.37,4.7H16.09A16.08,16.08,0,0,1,0,116V22L66.81,68.76,23.59,106.14a3.72,3.72,0,0,0,4.94,5.57L73.07,73.14,89.6,84.74a18.15,18.15,0,0,0,20.73,0l16.56-11.6,44.54,38.62a3.69,3.69,0,0,0,2.47.88,3.58,3.58,0,0,0,1.54-.32,3.72,3.72,0,0,0,1.26-.93,3.79,3.79,0,0,0,.73-1.24,3.88,3.88,0,0,0,.21-1.43,3.78,3.78,0,0,0-.37-1.4,3.65,3.65,0,0,0-.87-1.15L133.17,68.76Z"></path><path d="M199.73,13.13,126.12,64.67a3.71,3.71,0,0,0-2,1.18,2,2,0,0,0-.32.45L106.1,78.61a10.68,10.68,0,0,1-12.22,0L76.16,66.3a1.76,1.76,0,0,0-.32-.45,3.68,3.68,0,0,0-2-1.18L.25,13.13A16.1,16.1,0,0,1,16.06,0H183.92a16.08,16.08,0,0,1,15.81,13.13Z"></path></g></g></svg>