<?xml version="1.0" standalone="no"?>
<!DOCTYPE svg PUBLIC "-//W3C//DTD SVG 20010904//EN"
 "http://www.w3.org/TR/2001/REC-SVG-20010904/DTD/svg10.dtd">
<svg version="1.0" xmlns="http://www.w3.org/2000/svg"
 width="213.000000pt" height="408.000000pt" viewBox="0 0 213.000000 408.000000"
 preserveAspectRatio="xMidYMid meet">

<g transform="translate(0.000000,408.000000) scale(0.100000,-0.100000)"
fill="#000000" stroke="none">
<path d="M29 4051 l-29 -29 0 -1982 0 -1982 29 -29 30 -29 1011 2 1012 3 24
28 24 28 0 1980 0 1981 -29 29 -29 29 -1007 0 -1007 0 -29 -29z m931 -186 c7
-8 10 -25 6 -39 -6 -24 -30 -36 -78 -36 -22 0 -28 -5 -28 -21 0 -14 -5 -19
-17 -17 -15 3 -19 16 -21 66 l-3 62 64 0 c45 0 68 -5 77 -15z m161 -1 c9 -12
10 -20 2 -33 -7 -12 -8 -23 -1 -35 5 -9 7 -24 4 -32 -8 -21 -37 -17 -43 6 -8
29 -63 28 -63 -1 0 -14 -5 -19 -17 -17 -15 3 -19 16 -21 66 l-3 62 64 0 c47 0
68 -4 78 -16z m171 -1 c18 -16 24 -59 10 -79 -24 -37 -96 -44 -136 -13 -31 25
-34 61 -6 89 26 26 105 28 132 3z m-572 -453 c26 -26 28 -105 3 -132 -29 -32
-123 -15 -123 24 0 12 44 10 57 -3 6 -6 16 -8 22 -5 20 12 12 26 -15 26 -41 0
-64 18 -64 50 0 54 79 81 120 40z m160 0 c26 -26 28 -105 3 -132 -29 -32 -123
-15 -123 24 0 12 44 10 57 -3 6 -6 16 -8 22 -5 20 12 12 26 -15 26 -41 0 -64
18 -64 50 0 54 79 81 120 40z m160 0 c26 -26 28 -105 3 -132 -29 -32 -123 -15
-123 24 0 12 44 10 57 -3 6 -6 16 -8 22 -5 20 12 12 26 -15 26 -41 0 -64 18
-64 50 0 54 79 81 120 40z m239 9 c54 -19 69 -92 26 -134 -20 -21 -34 -25 -80
-25 l-55 0 0 85 0 85 39 0 c21 0 53 -5 70 -11z m131 -19 c0 -27 3 -30 30 -30
27 0 30 3 30 30 0 25 4 30 25 30 25 0 25 -1 25 -85 0 -84 0 -85 -25 -85 -21 0
-25 5 -25 30 0 27 -3 30 -30 30 -27 0 -30 -3 -30 -30 0 -27 -3 -30 -30 -30
l-30 0 0 78 c0 43 3 82 7 85 3 4 17 7 30 7 19 0 23 -5 23 -30z m-736 -409
c-14 -16 -44 -8 -43 11 0 10 2 10 6 1 11 -29 33 -13 34 25 1 36 1 37 8 7 5
-19 3 -35 -5 -44z m504 62 c-1 -5 3 -18 10 -30 8 -15 9 -23 2 -23 -5 0 -10 6
-10 14 0 8 -5 16 -12 18 -6 2 -8 10 -4 16 8 13 17 16 14 5z m69 -40 c-3 -10
-5 -2 -5 17 0 19 2 27 5 18 2 -10 2 -26 0 -35z m-480 0 c-3 -10 -5 -4 -5 12 0
17 2 24 5 18 2 -7 2 -21 0 -30z m72 6 c6 10 10 9 14 -3 5 -12 0 -16 -23 -16
-22 0 -28 4 -24 15 4 10 0 15 -11 15 -10 0 -13 5 -9 12 5 8 13 4 26 -12 15
-18 21 -21 27 -11z m-99 1 c0 -14 -6 -20 -22 -19 -17 1 -19 2 -5 6 9 2 17 9
17 14 0 6 -4 7 -10 4 -5 -3 -10 -1 -10 4 0 6 7 11 15 11 8 0 15 -9 15 -20z
m170 0 c0 -13 -7 -20 -19 -20 -14 0 -18 5 -14 20 3 11 12 20 19 20 8 0 14 -9
14 -20z m166 5 c4 -8 3 -23 0 -32 -6 -14 -8 -14 -22 5 -15 22 -12 42 7 42 5 0
12 -7 15 -15z m257 9 c9 -10 -4 -34 -18 -34 -17 0 -28 17 -20 30 7 11 28 13
38 4z m57 -14 c0 -13 -7 -20 -19 -20 -14 0 -18 5 -14 20 3 11 12 20 19 20 8 0
14 -9 14 -20z m50 5 c0 -20 10 -19 25 2 13 18 35 10 35 -13 0 -8 -10 -14 -24
-14 -14 0 -28 -4 -31 -10 -3 -5 -11 -10 -16 -10 -6 0 -7 5 -4 10 3 6 1 10 -4
10 -6 0 -11 9 -11 20 0 11 7 20 15 20 8 0 15 -7 15 -15z m-425 -25 c-10 -11
-21 -18 -23 -15 -6 6 31 44 37 39 2 -2 -4 -13 -14 -24z m114 18 c7 11 9 11 14
-2 4 -11 1 -16 -11 -16 -10 0 -23 -5 -29 -11 -7 -7 -9 -3 -5 16 3 20 7 23 13
13 8 -11 10 -11 18 0z m-165 -24 c3 -8 2 -12 -4 -9 -6 3 -10 10 -10 16 0 14 7
11 14 -7z m351 -33 c-6 -5 -25 10 -25 20 0 5 6 4 14 -3 8 -7 12 -15 11 -17z
m-135 -341 c-13 -9 -13 -12 3 -21 25 -15 22 -39 -5 -38 -17 1 -19 2 -5 6 21 6
22 19 2 27 -21 8 -19 36 3 36 15 0 15 -2 2 -10z m60 0 c-13 -8 -12 -11 4 -23
21 -16 14 -37 -12 -37 -15 0 -15 2 -2 10 13 8 12 11 -4 23 -21 16 -14 37 12
37 15 0 15 -2 2 -10z m75 -25 c0 -23 -5 -31 -22 -33 -20 -3 -23 1 -23 33 0 32
3 36 23 33 17 -2 22 -10 22 -33z m175 0 c0 -14 5 -25 10 -25 6 0 10 8 10 18 0
13 2 14 9 4 6 -10 10 -10 21 3 17 21 37 19 50 -5 13 -25 30 -26 31 -2 1 16 2
16 6 0 2 -10 11 -18 19 -18 8 0 15 8 15 18 1 16 2 16 6 0 2 -10 9 -18 14 -18
5 0 9 8 9 18 1 16 2 16 14 -1 14 -18 15 -18 25 0 11 17 12 17 9 -2 -3 -19 -11
-20 -133 -20 l-130 0 -3 28 c-2 15 1 27 7 27 6 0 11 -11 11 -25z m277 -22 c-3
-10 -5 -2 -5 17 0 19 2 27 5 18 2 -10 2 -26 0 -35z m143 12 c-26 -26 -37 -32
-47 -24 -7 6 -13 16 -13 21 0 7 5 6 13 -1 11 -8 19 -5 37 14 13 14 28 25 34
25 5 0 -5 -16 -24 -35z m-1040 5 c0 -26 16 -26 23 1 6 24 37 23 45 -1 4 -13 3
-13 -10 -2 -10 7 -19 9 -22 4 -3 -6 4 -12 17 -16 33 -9 37 -8 37 9 0 8 5 15
11 15 6 0 8 -7 5 -16 -3 -9 -6 -18 -6 -20 0 -2 -29 -4 -64 -4 -67 0 -97 15
-74 38 18 18 38 14 38 -8z m530 0 c0 -26 16 -26 23 1 7 26 32 20 32 -7 0 -15
-8 -20 -39 -22 -43 -4 -62 8 -53 32 9 23 37 20 37 -4z m-374 -20 c8 0 15 8 15
18 1 16 2 16 6 0 2 -10 9 -18 14 -18 5 0 9 8 9 18 1 15 2 15 12 -2 11 -19 11
-19 25 0 14 19 15 19 11 -1 -3 -16 -12 -21 -53 -23 -28 -2 -54 -7 -59 -13 -6
-5 -21 -9 -35 -8 l-26 1 25 7 c16 4 26 16 29 31 3 19 5 20 8 8 3 -10 11 -18
19 -18z m-451 -180 c0 -27 -2 -35 -8 -24 -7 13 -2 64 6 64 1 0 2 -18 2 -40z
m99 18 c8 -14 7 -21 -6 -34 -24 -24 -48 -11 -48 26 0 26 3 31 21 28 12 -2 27
-11 33 -20z m337 -19 c-9 -23 -10 -22 -10 11 -1 23 2 31 9 24 7 -7 7 -19 1
-35z m39 5 c0 -31 -2 -35 -15 -24 -17 14 -21 35 -5 25 6 -3 10 3 10 14 0 12 2
21 5 21 3 0 5 -16 5 -36z m230 -4 c0 -16 -3 -31 -7 -33 -5 -3 -8 12 -8 33 0
21 3 36 8 33 4 -2 7 -17 7 -33z m90 -44 c-7 -7 -15 -7 -27 0 -20 13 -29 34
-14 34 6 0 11 -7 11 -16 0 -33 25 -6 30 32 l4 39 4 -39 c2 -21 -2 -44 -8 -50z
m64 29 c25 0 32 22 9 28 -16 4 -16 5 -1 6 10 0 23 -8 30 -19 7 -11 16 -20 20
-20 4 0 10 9 13 20 7 23 30 27 38 6 10 -24 -17 -35 -79 -33 l-59 2 -2 35 c-1
34 -1 34 5 5 5 -20 13 -30 26 -30z m333 8 c-3 -10 -5 -2 -5 17 0 19 2 27 5 18
2 -10 2 -26 0 -35z m146 6 c-30 -31 -63 -35 -63 -8 0 8 4 9 13 0 11 -8 19 -5
37 14 13 14 28 25 34 25 6 0 -4 -14 -21 -31z m-1185 -1 c-2 -13 -10 -23 -18
-23 -8 0 -16 10 -18 23 -3 17 2 22 18 22 16 0 21 -5 18 -22z m91 -5 c-2 -24
-2 -25 -6 -5 -2 12 -9 22 -14 22 -5 0 -10 -10 -10 -22 l-2 -23 -4 23 c-5 25
-23 30 -23 7 0 -8 -4 -15 -10 -15 -11 0 -14 23 -3 33 3 4 21 7 40 7 30 0 33
-3 32 -27z m51 2 c0 -15 -6 -25 -14 -25 -18 0 -30 17 -17 24 5 4 12 0 14 -6 4
-8 6 -7 6 4 1 9 -5 19 -11 21 -8 3 -6 6 5 6 12 1 17 -7 17 -24z m27 -12 c-3
-10 -5 -4 -5 12 0 17 2 24 5 18 2 -7 2 -21 0 -30z m61 12 c3 -19 2 -19 -9 -1
-12 19 -12 19 -25 1 -13 -18 -14 -18 -14 4 0 17 5 22 22 19 14 -2 24 -11 26
-23z m142 0 c0 -15 -6 -25 -14 -25 -18 0 -30 17 -17 24 5 4 12 0 14 -6 4 -8 6
-7 6 4 1 9 -5 19 -11 21 -8 3 -6 6 5 6 12 1 17 -7 17 -24z m89 -2 c-2 -24 -2
-25 -6 -5 -2 12 -9 22 -14 22 -5 0 -10 -10 -10 -22 l-2 -23 -4 23 c-2 12 -8
22 -13 22 -5 0 -11 -10 -13 -22 -4 -20 -4 -19 -6 5 -1 25 2 27 34 27 32 0 35
-2 34 -27z m59 10 c2 -7 -4 -13 -15 -13 -15 0 -16 -2 -3 -10 13 -8 13 -10 -2
-10 -18 0 -28 18 -20 38 6 16 34 12 40 -5z m386 -5 c6 -21 8 -21 18 -6 11 15
13 15 25 0 11 -16 12 -16 13 1 0 9 5 17 10 17 6 0 10 -8 10 -17 1 -16 2 -16
16 2 l16 20 -4 -20 c-3 -17 -12 -20 -76 -23 -59 -2 -72 -6 -73 -20 -1 -14 -2
-15 -6 -1 -6 23 14 69 31 69 7 0 17 -10 20 -22z m-637 -205 c-3 -10 -5 -2 -5
17 0 19 2 27 5 18 2 -10 2 -26 0 -35z m160 0 c-3 -10 -5 -2 -5 17 0 19 2 27 5
18 2 -10 2 -26 0 -35z m754 13 c-19 -19 -40 -32 -47 -29 -20 8 -17 22 4 16 10
-2 27 6 41 21 14 14 27 26 30 26 3 0 -10 -15 -28 -34z m-941 -6 c0 -13 -7 -20
-18 -20 -10 0 -23 -5 -29 -11 -15 -15 -58 -7 -59 11 0 9 1 10 3 3 9 -26 63 -3
63 26 0 6 9 11 20 11 13 0 20 -7 20 -20z m76 -10 c8 0 15 8 15 18 1 16 2 16 6
0 3 -11 14 -18 29 -18 28 0 32 16 7 23 -14 4 -12 5 5 6 16 1 22 -5 22 -19 0
-12 -7 -20 -17 -21 -29 -1 -66 -6 -93 -13 -14 -3 -19 -4 -12 0 6 3 13 18 13
32 1 17 3 21 6 10 2 -10 11 -18 19 -18z m204 15 c0 -8 4 -15 9 -15 5 0 11 7
15 15 8 22 36 18 36 -5 0 -14 -7 -20 -22 -21 -61 -3 -72 -5 -75 -16 -2 -6 2
-13 9 -16 8 -2 8 -4 -2 -3 -11 1 -15 12 -13 36 1 19 2 36 2 38 4 10 41 -1 41
-13z m120 0 c0 -8 5 -15 10 -15 6 0 10 7 10 15 0 8 9 15 20 15 32 0 26 -37 -7
-42 -16 -3 -37 -9 -47 -13 -14 -6 -17 -5 -12 3 4 7 2 12 -3 12 -6 0 -11 9 -11
20 0 13 7 20 20 20 11 0 20 -7 20 -15z m146 0 c8 -20 24 -19 25 3 1 16 2 16 6
0 5 -22 33 -24 33 -3 0 8 9 15 20 15 11 0 20 -7 20 -15 0 -8 7 -15 15 -15 8 0
15 6 15 13 0 9 2 9 9 -1 7 -11 9 -11 14 2 8 20 46 21 53 1 8 -21 32 -19 37 3
4 15 5 15 6 0 0 -9 -4 -20 -10 -23 -6 -4 -71 -8 -145 -9 -107 -1 -137 -4 -145
-16 -9 -12 -9 -11 -4 5 4 11 10 28 12 38 6 21 32 23 39 2z m-504 -190 c3 -14
1 -28 -3 -31 -5 -3 -9 9 -9 25 0 38 6 40 12 6z m165 -22 c-3 -10 -5 -2 -5 17
0 19 2 27 5 18 2 -10 2 -26 0 -35z m223 20 c0 -20 -7 -31 -27 -40 -15 -7 -29
-11 -31 -8 -3 3 1 5 8 5 9 0 8 5 -5 14 -11 8 -16 19 -12 30 9 22 28 20 34 -4
7 -28 23 -25 23 5 0 14 2 25 5 25 3 0 5 -12 5 -27z m510 -8 c-26 -26 -37 -32
-47 -24 -7 6 -13 16 -13 21 0 7 5 6 13 -1 11 -8 19 -5 37 14 13 14 28 25 34
25 5 0 -5 -16 -24 -35z m-922 2 c2 -10 -5 -20 -15 -23 -10 -3 -28 -11 -40 -16
-28 -13 -53 -4 -52 19 1 17 2 17 6 1 5 -19 33 -25 33 -8 0 6 6 10 14 10 7 0
16 9 19 21 6 24 30 21 35 -4z m157 -2 c0 -17 -8 -21 -45 -23 -25 -2 -49 -7
-54 -13 -6 -5 -14 -9 -20 -9 -6 0 -5 5 2 12 7 7 13 21 13 33 1 16 2 17 6 3 2
-10 8 -18 13 -18 5 0 14 8 19 18 10 16 10 16 11 -1 0 -13 6 -17 23 -15 12 2
20 8 17 13 -3 6 -8 9 -12 8 -5 -2 -8 2 -8 8 0 6 8 9 18 7 9 -2 17 -12 17 -23z
m112 5 c3 -11 9 -20 13 -20 4 0 10 9 13 20 5 21 27 28 27 9 0 -5 -4 -7 -10 -4
-5 3 -10 -1 -10 -9 0 -8 8 -17 18 -19 9 -3 3 -5 -15 -6 -17 0 -35 -5 -38 -11
-3 -5 -14 -10 -23 -9 -11 0 -13 2 -4 6 10 4 10 8 1 19 -13 16 -5 44 12 44 6 0
13 -9 16 -20z m260 0 c7 -25 23 -26 23 -2 1 16 1 16 11 0 12 -22 29 -23 29 -4
0 26 22 29 40 6 17 -22 18 -22 28 -4 8 13 11 14 12 5 0 -11 4 -10 20 4 21 19
50 14 50 -10 0 -20 16 -19 30 3 10 15 10 15 8 -3 -3 -19 -12 -20 -143 -23
-117 -2 -142 -5 -152 -19 -18 -24 -16 -2 3 35 18 37 34 41 41 12z m-857 -214
c4 -4 11 1 15 13 7 24 30 28 38 6 7 -17 -7 -28 -41 -31 -13 -2 -30 -8 -38 -15
-11 -9 -17 -9 -29 1 -8 7 -15 18 -14 24 0 7 2 6 6 -1 2 -7 13 -13 24 -13 15 0
19 8 20 38 1 27 3 30 6 12 3 -14 8 -29 13 -34z m90 0 c5 -5 17 -5 27 -2 17 7
17 8 0 20 -16 12 -16 15 -2 26 9 8 15 9 14 4 -3 -14 12 -44 22 -44 5 0 9 9 9
20 0 11 5 20 10 20 14 0 12 -36 -2 -48 -7 -5 -31 -9 -53 -8 -38 1 -40 2 -42
36 -1 23 1 27 4 10 2 -14 9 -29 13 -34z m126 -6 c2 0 9 10 14 23 l9 22 0 -22
c1 -12 -4 -25 -9 -28 -17 -11 -40 15 -39 44 1 24 1 24 10 -6 5 -18 12 -33 15
-33z m582 53 c-3 -16 15 -43 27 -43 8 0 16 12 18 28 4 20 4 18 3 -8 l-1 -35
-55 -1 c-31 0 -61 -4 -68 -8 -23 -14 -64 -15 -58 -1 3 8 -2 16 -9 19 -18 6 -8
36 11 36 13 0 15 -5 18 -37 2 -26 21 -17 26 12 l6 30 7 -25 8 -25 10 25 11 25
9 -23 c9 -24 29 -26 37 -4 2 7 -4 12 -13 12 -14 0 -15 3 -5 15 14 16 21 19 18
8z m79 -40 c-3 -10 -5 -2 -5 17 0 19 2 27 5 18 2 -10 2 -26 0 -35z m376 5
c-20 -19 -37 -29 -47 -25 -22 9 -20 26 2 20 10 -2 27 6 41 21 14 14 27 24 30
21 3 -3 -9 -20 -26 -37z m-883 7 c0 -18 15 -26 34 -19 21 8 20 21 -1 27 -13 4
-12 5 5 6 12 0 25 -6 28 -14 4 -8 12 -15 20 -15 8 0 14 7 14 15 0 8 7 15 15
15 17 0 32 -27 21 -37 -4 -4 -50 -8 -103 -10 -53 -1 -101 -7 -107 -13 -5 -5
-14 -10 -20 -10 -6 0 -5 5 2 12 7 7 13 23 13 38 1 16 3 19 6 8 6 -23 15 -23
31 2 13 21 42 17 42 -5z m260 -5 c0 -24 -41 -53 -64 -44 -9 3 -16 14 -16 23 1
14 2 14 11 -1 9 -17 12 -17 34 -2 14 9 25 23 25 30 0 8 2 14 5 14 3 0 5 -9 5
-20z m324 -20 c2 0 11 3 20 6 21 8 20 24 -1 25 -13 0 -14 2 -4 6 8 3 22 -5 32
-18 l19 -24 7 24 6 25 9 -23 c8 -23 28 -20 28 5 0 19 29 18 37 -1 9 -25 -3
-30 -87 -31 -47 -1 -86 -6 -95 -14 -9 -8 -15 -8 -15 -2 0 6 5 14 10 17 6 3 10
16 11 28 l0 22 9 -22 c5 -13 11 -23 14 -23z m-614 -140 c-12 -8 -12 -11 3 -28
18 -20 14 -32 -12 -32 -14 0 -14 2 -1 10 13 8 12 11 -4 23 -21 16 -14 37 12
37 14 0 15 -2 2 -10z m54 -5 c-13 -10 -14 -14 -5 -15 10 0 11 -3 2 -14 -10
-11 -8 -15 6 -19 14 -4 13 -5 -4 -6 -20 -1 -23 4 -23 34 0 29 4 35 22 35 21 0
21 0 2 -15z m74 6 c8 -4 12 -19 10 -32 -2 -18 -9 -24 -28 -24 -28 0 -39 27
-20 50 14 17 20 18 38 6z m-173 -36 c0 -19 -3 -35 -7 -35 -5 0 -8 16 -8 35 0
19 3 35 8 35 4 0 7 -16 7 -35z m217 -19 c-8 -18 -10 -15 -10 18 0 32 2 36 10
22 7 -12 7 -25 0 -40z m264 8 c-4 -11 -26 -14 -90 -14 -47 0 -88 -4 -91 -10
-3 -5 -14 -10 -23 -9 -10 0 -12 3 -5 6 10 3 9 8 -2 20 -13 12 -13 18 -3 30 11
13 14 12 29 -6 21 -26 29 -26 30 -3 1 16 2 16 6 0 5 -20 33 -24 34 -5 0 10 2
10 6 0 7 -19 23 -16 23 4 0 15 1 15 14 -2 13 -18 13 -18 24 1 11 18 11 18 12
1 0 -27 24 -15 29 14 3 19 5 20 9 6 2 -10 1 -25 -2 -33z m34 21 c0 -29 16 -34
23 -7 3 12 5 11 6 -6 1 -19 -3 -23 -21 -20 -17 2 -24 11 -26 31 -2 15 1 27 7
27 6 0 11 -11 11 -25z m470 22 c0 -2 -15 -18 -33 -35 -31 -31 -35 -32 -48 -16
-12 16 -12 17 2 12 11 -4 25 3 40 18 19 21 39 31 39 21z m-310 -27 c11 -21 44
-27 55 -10 3 6 -1 10 -10 10 -10 0 -13 5 -9 12 5 8 13 5 25 -10 22 -27 35 -28
42 -2 6 24 40 16 35 -9 -3 -13 -20 -16 -103 -19 -54 -1 -105 -8 -112 -14 -7
-6 -16 -8 -20 -4 -3 3 -1 6 5 6 7 0 13 12 13 28 1 16 3 20 6 10 6 -24 20 -23
28 2 3 11 13 20 20 20 8 0 19 -9 25 -20z m-585 -220 c7 0 12 8 11 17 -2 26 34
29 41 4 7 -29 23 -26 23 4 0 14 5 25 10 25 6 0 10 -11 10 -25 0 -33 17 -32 23
0 4 23 4 23 3 -2 -1 -28 -2 -28 -73 -31 l-73 -3 2 38 c1 37 1 37 5 6 3 -19 10
-33 18 -33z m152 8 c-2 -13 -4 -5 -4 17 -1 22 1 32 4 23 2 -10 2 -28 0 -40z
m716 11 c-30 -31 -63 -35 -63 -8 0 8 4 9 13 0 11 -8 19 -5 37 14 13 14 28 25
34 25 6 0 -4 -14 -21 -31z m-573 -19 c4 0 10 9 13 20 3 11 13 20 22 20 9 0 19
-9 22 -20 7 -25 23 -26 23 -2 1 16 1 16 11 0 13 -24 25 -23 32 3 7 26 32 20
32 -7 0 -17 -9 -19 -105 -22 -65 -1 -100 1 -91 7 8 5 11 17 8 27 -5 14 -2 13
9 -3 9 -13 20 -23 24 -23z m247 20 c3 -11 9 -20 13 -20 4 0 10 9 13 20 7 29
39 26 35 -2 -3 -20 -10 -23 -50 -26 -50 -3 -60 -14 -30 -32 15 -10 15 -10 -3
-8 -15 3 -20 11 -21 38 0 19 1 38 3 43 8 15 35 6 40 -13z m123 -2 l9 -23 7 23
c8 28 39 26 39 -3 0 -14 -8 -21 -25 -23 -14 -2 -29 -8 -34 -13 -6 -5 -17 -9
-25 -9 -13 0 -13 2 -2 9 9 6 10 11 2 15 -17 11 -13 46 4 46 9 0 20 -10 25 -22z
m-713 -13 c-8 -20 -63 -20 -71 0 -3 8 -1 15 4 15 6 0 10 -4 10 -10 0 -16 40
-11 47 5 3 9 8 14 10 11 3 -3 3 -12 0 -21z m279 -4 c-4 -6 -15 -11 -24 -10
-11 0 -12 3 -4 6 6 2 12 12 12 21 0 12 3 13 11 5 6 -6 8 -16 5 -22z m-166
-191 c5 0 11 6 13 13 4 9 8 8 16 -3 10 -13 13 -13 22 3 12 21 35 22 43 2 3 -8
10 -15 16 -15 5 0 10 7 10 15 0 8 9 15 20 15 29 0 27 -36 -2 -42 -13 -2 -52
-4 -88 -3 l-65 0 -1 35 c-1 26 -1 28 3 8 2 -16 8 -28 13 -28z m347 3 c-3 -10
-5 -2 -5 17 0 19 2 27 5 18 2 -10 2 -26 0 -35z m451 11 c-20 -20 -41 -33 -47
-30 -17 11 -13 25 7 19 10 -2 27 6 41 21 14 14 27 26 30 26 3 0 -11 -16 -31
-36z m-870 -7 c2 -12 -3 -17 -17 -17 -15 0 -21 6 -21 21 0 25 33 22 38 -4z
m32 -7 c0 -22 -5 -30 -17 -29 -11 0 -13 3 -5 6 6 2 12 16 12 29 0 13 2 24 5
24 3 0 5 -13 5 -30z m314 0 c3 0 6 7 6 15 0 8 9 15 20 15 13 0 20 -7 20 -18 0
-13 -13 -22 -50 -31 -53 -14 -71 -9 -69 17 1 15 2 15 6 0 7 -29 33 -21 33 10
1 24 2 25 14 10 7 -10 16 -18 20 -18z m126 0 c0 -21 -5 -30 -17 -30 -9 0 -13
3 -10 7 4 3 2 12 -4 19 -13 16 -4 34 17 34 9 0 14 -11 14 -30z m80 15 c0 -8 5
-15 10 -15 6 0 10 7 10 15 0 8 8 15 18 14 10 0 12 -3 5 -6 -18 -7 -16 -23 2
-23 8 0 15 -4 15 -10 0 -24 20 -7 21 18 1 16 3 20 6 10 5 -20 33 -24 34 -5 0
10 2 10 6 0 2 -7 11 -13 19 -13 8 0 14 6 15 13 0 10 2 10 6 0 7 -18 21 -16 27
5 3 10 4 7 3 -8 -2 -22 -7 -24 -47 -25 -25 -1 -51 -4 -57 -8 -5 -4 -38 -2 -72
4 -49 9 -61 15 -61 30 0 12 7 19 20 19 11 0 20 -7 20 -15z m-1000 -192 c0 -16
-4 -34 -9 -41 -12 -20 -45 -10 -49 13 -2 18 -2 19 8 3 17 -28 30 -21 30 17 0
19 5 35 10 35 6 0 10 -12 10 -27z m30 2 c0 -30 16 -33 23 -5 3 11 10 20 16 20
6 0 15 -9 21 -20 12 -23 30 -27 30 -6 0 8 4 17 9 20 15 10 43 -6 37 -20 -3 -8
1 -14 9 -14 8 0 15 8 15 17 0 15 2 14 15 -3 12 -15 16 -16 24 -5 7 10 10 11
16 1 6 -10 11 -9 22 5 12 17 13 17 13 2 0 -22 17 -22 23 1 4 13 5 11 6 -6 l1
-23 -147 3 -148 3 -3 28 c-2 15 1 27 7 27 6 0 11 -11 11 -25z m346 -21 c-3 -8
-14 -14 -24 -14 -16 0 -18 5 -13 28 5 25 6 25 9 5 5 -32 22 -29 23 5 1 17 3
21 6 9 3 -10 2 -25 -1 -33z m31 -1 c-3 -10 -5 -2 -5 17 0 19 2 27 5 18 2 -10
2 -26 0 -35z m122 -3 c5 0 11 9 14 20 3 11 13 20 22 20 9 0 19 -9 22 -20 7
-25 33 -27 34 -2 1 16 2 16 6 0 2 -10 7 -18 10 -18 3 0 12 8 19 18 13 16 13
16 14 0 0 -22 17 -24 23 -3 4 11 4 10 3 -2 -1 -16 -15 -18 -120 -21 -121 -3
-141 3 -129 35 8 20 30 16 36 -8 7 -26 26 -16 28 14 2 17 3 16 6 -5 2 -16 8
-28 12 -28z m343 0 c25 0 31 17 11 29 -20 12 -13 14 11 5 9 -3 16 -12 16 -20
0 -19 27 -18 33 1 4 11 4 10 3 -2 -1 -16 -14 -18 -99 -21 -77 -2 -97 -6 -97
-17 0 -8 -4 -15 -10 -15 -13 0 -13 1 5 44 17 40 34 47 42 16 3 -11 14 -20 24
-20 21 0 26 16 7 22 -7 3 -8 10 -3 17 6 10 12 7 24 -13 8 -14 23 -26 33 -26z
m308 24 c0 -17 -6 -28 -20 -31 -11 -3 -20 -9 -20 -14 0 -5 -8 -9 -17 -8 -11 0
-13 3 -6 6 10 3 9 8 -2 19 -16 16 -10 44 10 44 8 0 17 -9 20 -20 8 -24 25 -17
25 11 0 10 2 19 5 19 3 0 5 -12 5 -26z m140 -9 c-26 -26 -37 -32 -47 -24 -7 6
-13 16 -13 21 0 7 5 6 13 -1 11 -8 19 -5 37 14 13 14 28 25 34 25 5 0 -5 -16
-24 -35z m-290 5 c0 -13 7 -20 19 -20 27 0 35 17 14 30 -17 10 -16 11 2 8 12
-2 20 -11 20 -23 0 -16 -8 -21 -39 -23 -43 -4 -62 8 -53 32 9 23 37 20 37 -4z
m-855 -182 c-12 -37 -22 -41 -21 -9 1 18 6 31 14 31 9 0 11 -7 7 -22z m80 0
c-11 -35 -28 -48 -20 -15 5 17 3 27 -4 27 -6 0 -17 -12 -25 -27 -18 -33 -21
-25 -4 12 15 34 63 37 53 3z m172 -25 c-3 -10 -5 -2 -5 17 0 19 2 27 5 18 2
-10 2 -26 0 -35z m173 17 c0 -16 -4 -30 -10 -30 -11 0 -14 43 -3 53 11 12 13
8 13 -23z m733 -12 c-30 -30 -63 -34 -63 -7 0 8 4 9 13 0 10 -8 20 -4 42 19
16 16 31 27 34 25 3 -3 -9 -20 -26 -37z m-925 1 c3 -18 -70 -51 -93 -43 -16 6
-29 34 -16 34 5 0 12 -7 15 -15 5 -14 8 -14 31 1 14 9 25 23 25 31 0 19 34 12
38 -8z m157 11 c12 -20 -16 -40 -56 -38 -21 1 -46 -5 -55 -13 -15 -12 -16 -12
-11 1 4 8 10 23 13 33 6 17 7 17 20 0 13 -17 13 -17 14 0 0 21 20 23 20 2 0
-16 9 -19 34 -9 21 8 20 21 -1 27 -16 4 -16 5 -1 6 9 0 20 -4 23 -9z m83 -22
c-2 -17 -9 -34 -17 -36 -9 -3 -11 0 -6 8 4 7 2 16 -5 20 -17 10 -5 40 15 40
12 0 15 -8 13 -32z m85 10 c13 27 37 29 44 2 6 -24 23 -27 23 -3 0 15 2 14 14
-3 14 -18 15 -18 21 -1 7 17 8 17 20 0 13 -17 14 -17 21 0 5 15 9 16 16 5 8
-11 10 -11 15 0 4 10 8 9 18 -4 12 -16 13 -16 24 4 16 30 43 29 39 0 -3 -22
-6 -23 -134 -24 -76 -1 -140 -7 -153 -13 -14 -8 -21 -8 -21 -1 0 5 5 10 10 10
6 0 10 12 11 28 l0 27 11 -25 10 -25 11 23z m348 0 l12 -22 8 22 c5 12 16 21
26 21 17 -1 17 -2 1 -6 -10 -2 -18 -8 -18 -13 0 -5 8 -14 18 -19 13 -8 6 -10
-31 -9 -32 1 -52 -3 -57 -13 -5 -7 -12 -10 -16 -6 -4 4 -2 13 4 19 7 7 12 20
12 30 0 25 27 22 41 -4z m106 -12 c-4 -9 -12 -16 -19 -16 -9 0 -9 3 -1 11 6 6
9 19 6 28 -5 13 -3 13 7 4 7 -6 10 -19 7 -27z m243 -316 c18 -18 20 -33 20
-174 0 -137 -2 -156 -19 -177 l-19 -24 -937 0 -937 0 -19 24 c-17 21 -19 40
-19 175 0 121 3 156 16 174 l15 22 940 0 c926 0 939 0 959 -20z"/>
<path d="M865 3840 c-4 -6 8 -10 30 -10 22 0 34 4 30 10 -3 6 -17 10 -30 10
-13 0 -27 -4 -30 -10z"/>
<path d="M1025 3840 c-4 -6 8 -10 30 -10 22 0 34 4 30 10 -3 6 -17 10 -30 10
-13 0 -27 -4 -30 -10z"/>
<path d="M1190 3835 c-20 -24 -4 -45 35 -45 23 0 38 6 41 15 8 21 -14 45 -41
45 -12 0 -28 -7 -35 -15z"/>
<path d="M650 3369 c0 -14 5 -19 17 -17 26 5 29 38 4 38 -15 0 -21 -6 -21 -21z"/>
<path d="M810 3369 c0 -14 5 -19 17 -17 26 5 29 38 4 38 -15 0 -21 -6 -21 -21z"/>
<path d="M970 3369 c0 -14 5 -19 17 -17 26 5 29 38 4 38 -15 0 -21 -6 -21 -21z"/>
<path d="M1220 3340 c0 -37 2 -41 23 -38 18 2 22 9 22 38 0 29 -4 36 -22 38
-21 3 -23 -1 -23 -38z"/>
<path d="M1050 3020 c0 -5 5 -10 10 -10 6 0 10 5 10 10 0 6 -4 10 -10 10 -5 0
-10 -4 -10 -10z"/>
<path d="M1300 3020 c0 -5 4 -10 9 -10 6 0 13 5 16 10 3 6 -1 10 -9 10 -9 0
-16 -4 -16 -10z"/>
<path d="M1470 3020 c0 -5 5 -10 10 -10 6 0 10 5 10 10 0 6 -4 10 -10 10 -5 0
-10 -4 -10 -10z"/>
<path d="M1280 2595 c0 -17 5 -25 13 -22 6 2 12 12 12 22 0 10 -6 20 -12 23
-8 2 -13 -6 -13 -23z"/>
<path d="M1550 2585 c-10 -13 -9 -15 9 -15 11 0 21 4 21 9 0 18 -18 21 -30 6z"/>
<path d="M841 2584 c0 -11 3 -14 6 -6 3 7 2 16 -1 19 -3 4 -6 -2 -5 -13z"/>
<path d="M1371 2584 c0 -11 3 -14 6 -6 3 7 2 16 -1 19 -3 4 -6 -2 -5 -13z"/>
<path d="M1430 2584 c0 -8 5 -12 10 -9 6 4 8 11 5 16 -9 14 -15 11 -15 -7z"/>
<path d="M640 2394 c0 -14 4 -23 10 -19 6 3 10 15 10 26 0 10 -4 19 -10 19 -5
0 -10 -12 -10 -26z"/>
<path d="M1521 2384 c0 -11 3 -14 6 -6 3 7 2 16 -1 19 -3 4 -6 -2 -5 -13z"/>
<path d="M700 2385 c0 -8 5 -15 10 -15 6 0 10 7 10 15 0 8 -4 15 -10 15 -5 0
-10 -7 -10 -15z"/>
<path d="M1600 2390 c0 -5 5 -10 10 -10 6 0 10 5 10 10 0 6 -4 10 -10 10 -5 0
-10 -4 -10 -10z"/>
<path d="M940 2190 c0 -5 5 -10 10 -10 6 0 10 5 10 10 0 6 -4 10 -10 10 -5 0
-10 -4 -10 -10z"/>
<path d="M1215 2190 c4 -6 11 -8 16 -5 14 9 11 15 -7 15 -8 0 -12 -5 -9 -10z"/>
<path d="M1340 2190 c0 -5 5 -10 10 -10 6 0 10 5 10 10 0 6 -4 10 -10 10 -5 0
-10 -4 -10 -10z"/>
<path d="M1400 2190 c0 -5 5 -10 10 -10 6 0 10 5 10 10 0 6 -4 10 -10 10 -5 0
-10 -4 -10 -10z"/>
<path d="M1590 2190 c0 -5 5 -10 10 -10 6 0 10 5 10 10 0 6 -4 10 -10 10 -5 0
-10 -4 -10 -10z"/>
<path d="M1685 2190 c-3 -5 3 -10 14 -10 12 0 21 5 21 10 0 6 -6 10 -14 10 -8
0 -18 -4 -21 -10z"/>
<path d="M1345 1990 c3 -5 8 -10 11 -10 2 0 4 5 4 10 0 6 -5 10 -11 10 -5 0
-7 -4 -4 -10z"/>
<path d="M960 1994 c0 -8 5 -12 10 -9 6 4 8 11 5 16 -9 14 -15 11 -15 -7z"/>
<path d="M1230 1989 c0 -5 5 -7 10 -4 6 3 10 8 10 11 0 2 -4 4 -10 4 -5 0 -10
-5 -10 -11z"/>
<path d="M1490 1994 c0 -8 5 -12 10 -9 6 4 8 11 5 16 -9 14 -15 11 -15 -7z"/>
<path d="M1693 2003 c-20 -7 -15 -23 7 -23 11 0 20 4 20 9 0 13 -12 19 -27 14z"/>
<path d="M1590 1990 c0 -5 5 -10 10 -10 6 0 10 5 10 10 0 6 -4 10 -10 10 -5 0
-10 -4 -10 -10z"/>
<path d="M1140 1800 c0 -5 5 -10 11 -10 5 0 7 5 4 10 -3 6 -8 10 -11 10 -2 0
-4 -4 -4 -10z"/>
<path d="M1740 1800 c0 -5 5 -10 10 -10 6 0 10 5 10 10 0 6 -4 10 -10 10 -5 0
-10 -4 -10 -10z"/>
<path d="M1106 1633 c-12 -12 -6 -43 9 -43 8 0 15 9 15 19 0 21 -13 34 -24 24z"/>
<path d="M1740 1600 c0 -5 5 -10 10 -10 6 0 10 5 10 10 0 6 -4 10 -10 10 -5 0
-10 -4 -10 -10z"/>
<path d="M1070 1410 c0 -5 5 -10 10 -10 6 0 10 5 10 10 0 6 -4 10 -10 10 -5 0
-10 -4 -10 -10z"/>
<path d="M1360 1410 c0 -5 5 -10 10 -10 6 0 10 5 10 10 0 6 -4 10 -10 10 -5 0
-10 -4 -10 -10z"/>
<path d="M1470 1410 c0 -5 5 -10 10 -10 6 0 10 5 10 10 0 6 -4 10 -10 10 -5 0
-10 -4 -10 -10z"/>
<path d="M1560 1410 c0 -5 5 -10 10 -10 6 0 10 5 10 10 0 6 -4 10 -10 10 -5 0
-10 -4 -10 -10z"/>
<path d="M1625 1411 c-3 -5 -1 -12 5 -16 5 -3 10 1 10 9 0 18 -6 21 -15 7z"/>
<path d="M1680 1404 c0 -8 5 -12 10 -9 6 4 8 11 5 16 -9 14 -15 11 -15 -7z"/>
<path d="M1740 1410 c0 -5 5 -10 11 -10 5 0 7 5 4 10 -3 6 -8 10 -11 10 -2 0
-4 -4 -4 -10z"/>
<path d="M1170 1210 c0 -5 5 -10 10 -10 6 0 10 5 10 10 0 6 -4 10 -10 10 -5 0
-10 -4 -10 -10z"/>
<path d="M1240 1210 c0 -5 5 -10 10 -10 6 0 10 5 10 10 0 6 -4 10 -10 10 -5 0
-10 -4 -10 -10z"/>
<path d="M1010 1210 c0 -5 5 -10 10 -10 6 0 10 5 10 10 0 6 -4 10 -10 10 -5 0
-10 -4 -10 -10z"/>
<path d="M1400 1210 c0 -5 5 -10 10 -10 6 0 10 5 10 10 0 6 -4 10 -10 10 -5 0
-10 -4 -10 -10z"/>
<path d="M1480 1210 c0 -5 5 -10 10 -10 6 0 10 5 10 10 0 6 -4 10 -10 10 -5 0
-10 -4 -10 -10z"/>
<path d="M656 1021 c-4 -7 -5 -15 -2 -18 9 -9 19 4 14 18 -4 11 -6 11 -12 0z"/>
<path d="M720 1020 c0 -5 5 -10 10 -10 6 0 10 5 10 10 0 6 -4 10 -10 10 -5 0
-10 -4 -10 -10z"/>
<path d="M1045 1021 c-3 -5 -1 -12 5 -16 5 -3 10 1 10 9 0 18 -6 21 -15 7z"/>
<path d="M1145 1019 c-4 -6 -4 -13 -1 -16 3 -4 6 0 6 8 0 11 2 11 10 -1 8 -13
10 -12 10 3 0 19 -15 23 -25 6z"/>
<path d="M1350 1014 c0 -8 5 -12 10 -9 6 4 8 11 5 16 -9 14 -15 11 -15 -7z"/>
<path d="M1711 1014 c0 -11 3 -14 6 -6 3 7 2 16 -1 19 -3 4 -6 -2 -5 -13z"/>
<path d="M970 820 c0 -5 5 -10 11 -10 5 0 7 5 4 10 -3 6 -8 10 -11 10 -2 0 -4
-4 -4 -10z"/>
<path d="M1210 820 c0 -5 5 -10 10 -10 6 0 10 5 10 10 0 6 -4 10 -10 10 -5 0
-10 -4 -10 -10z"/>
<path d="M1341 814 c0 -11 3 -14 6 -6 3 7 2 16 -1 19 -3 4 -6 -2 -5 -13z"/>
<path d="M1550 820 c0 -5 5 -10 10 -10 6 0 10 5 10 10 0 6 -4 10 -10 10 -5 0
-10 -4 -10 -10z"/>
<path d="M1640 820 c0 -5 5 -10 11 -10 5 0 7 5 4 10 -3 6 -8 10 -11 10 -2 0
-4 -4 -4 -10z"/>
<path d="M1348 373 c6 -2 18 -2 25 0 6 3 1 5 -13 5 -14 0 -19 -2 -12 -5z"/>
<path d="M752 338 l3 -33 110 0 c105 0 110 1 113 21 4 29 -25 39 -40 14 -7
-11 -19 -20 -26 -20 -7 0 -11 4 -7 9 3 6 -2 14 -12 20 -20 11 -57 -4 -48 -20
4 -5 -1 -9 -9 -9 -9 0 -16 7 -16 15 0 8 -4 15 -10 15 -5 0 -10 -7 -10 -15 0
-8 -7 -15 -15 -15 -9 0 -15 9 -15 25 0 14 -5 25 -11 25 -6 0 -9 -14 -7 -32z"/>
<path d="M1080 335 c0 -24 -5 -35 -15 -35 -8 0 -15 7 -15 15 0 8 -5 15 -11 15
-6 0 -9 -10 -7 -22 2 -17 11 -24 31 -26 15 -2 27 1 27 7 0 7 26 11 65 11 69 0
90 15 65 45 -16 19 -25 19 -45 -2 -14 -13 -18 -14 -25 -2 -7 11 -10 10 -16 -4
-10 -26 -34 -21 -34 8 0 14 -4 25 -10 25 -5 0 -10 -16 -10 -35z m130 -5 c0 -5
-7 -10 -16 -10 -8 0 -12 5 -9 10 3 6 10 10 16 10 5 0 9 -4 9 -10z"/>
<path d="M1250 335 c0 -19 5 -35 10 -35 6 0 10 16 10 35 0 19 -4 35 -10 35 -5
0 -10 -16 -10 -35z"/>
<path d="M1295 348 c-8 -23 0 -68 11 -68 29 0 74 33 74 53 -1 22 -1 22 -15 2
-15 -19 -15 -19 -31 3 -17 25 -32 28 -39 10z"/>
</g>
</svg>
