<svg width="167" height="167" viewBox="0 0 167 167" fill="none" xmlns="http://www.w3.org/2000/svg">
<circle cx="83.5" cy="83.5" r="83.5" fill="url(#paint0_linear_249_9)"/>
<path d="M131.841 106.159L114.46 123.255C112.501 125.223 109.826 126.346 107.024 126.378C104.221 126.409 101.52 125.347 99.5158 123.425C97.5112 121.502 96.3668 118.877 96.3344 116.126C96.302 113.376 97.3843 110.725 99.3432 108.757L116.762 91.699C119.741 88.533 121.356 84.3584 121.268 80.0499C121.181 75.7415 119.398 71.6333 116.293 68.5862C113.189 65.539 109.003 63.7893 104.613 63.7035C100.223 63.6177 95.9697 65.2025 92.7439 68.1259L70.0301 90.3057C69.0501 91.2675 67.8867 92.0305 66.6063 92.551C65.3258 93.0716 63.9535 93.3395 62.5676 93.3395C61.1816 93.3395 59.8093 93.0716 58.5289 92.551C57.2484 92.0305 56.085 91.2675 55.105 90.3057C54.125 89.3439 53.3476 88.202 52.8173 86.9453C52.2869 85.6886 52.0139 84.3417 52.0139 82.9815C52.0139 81.6213 52.2869 80.2743 52.8173 79.0177C53.3476 77.761 54.125 76.6191 55.105 75.6573L77.8572 53.3645C85.0845 46.8961 94.5738 43.41 104.352 43.631C114.131 43.852 123.447 47.7631 130.363 54.5512C137.279 61.3394 141.264 70.4824 141.49 80.0797C141.715 89.6771 138.163 98.9904 131.572 106.084L131.841 106.159Z" fill="white"/>
<path d="M112.081 87.2932L89.3671 109.586C82.1034 115.852 72.6815 119.17 63.0156 118.865C53.3496 118.56 44.1644 114.655 37.326 107.943C30.4876 101.231 26.5088 92.2165 26.1979 82.7297C25.887 73.2429 29.2673 63.9957 35.6521 56.8666L48.5437 43.9881C49.5064 42.9551 50.6724 42.1244 51.9713 41.5463C53.2703 40.9681 54.6752 40.6543 56.1012 40.6241C57.5271 40.5938 58.9445 40.8476 60.2678 41.3701C61.591 41.8926 62.7925 42.673 63.7998 43.6642C64.807 44.6553 65.599 45.8365 66.128 47.1366C66.657 48.4366 66.9119 49.8284 66.8774 51.2278C66.8429 52.6273 66.5197 54.0053 65.9272 55.2787C65.3347 56.5521 64.4854 57.6944 63.4305 58.6365L50.4621 71.4021C47.6959 74.5798 46.2491 78.6626 46.4091 82.8391C46.5691 87.0157 48.3242 90.9803 51.3258 93.9452C54.3273 96.91 58.3554 98.658 62.6097 98.8419C66.8641 99.0257 71.0332 97.632 74.2886 94.9375L97.3093 72.6448C99.2885 70.7023 101.973 69.611 104.772 69.611C107.571 69.611 110.255 70.7023 112.234 72.6448C114.214 74.5873 115.325 77.2219 115.325 79.969C115.325 82.7161 114.214 85.3507 112.234 87.2932H112.081Z" fill="#FFF9FF"/>
<defs>
<linearGradient id="paint0_linear_249_9" x1="33.8513" y1="16.2487" x2="131.343" y2="152.105" gradientUnits="userSpaceOnUse">
<stop stop-color="#BE27C8"/>
<stop offset="1" stop-color="#AB18FB"/>
</linearGradient>
</defs>
</svg>
