<?xml version="1.0" standalone="no"?>
<!DOCTYPE svg PUBLIC "-//W3C//DTD SVG 20010904//EN"
 "http://www.w3.org/TR/2001/REC-SVG-20010904/DTD/svg10.dtd">
<svg version="1.0" xmlns="http://www.w3.org/2000/svg"
 width="940.000000pt" height="788.000000pt" viewBox="0 0 940.000000 788.000000"
 preserveAspectRatio="xMidYMid meet">

<g transform="translate(0.000000,788.000000) scale(0.100000,-0.100000)"
fill="#000000" stroke="none">
<path d="M4208 5661 c-105 -41 -162 -97 -204 -199 l-24 -57 0 -795 c0 -757 1
-799 19 -865 28 -99 64 -159 145 -240 82 -82 166 -130 263 -150 93 -20 462
-20 554 -1 68 15 165 58 209 94 l24 20 41 -33 c85 -69 176 -95 335 -95 130 0
218 20 293 66 52 32 60 34 75 21 64 -56 182 -87 331 -87 145 0 258 34 343 102
l27 21 38 -25 c123 -81 203 -98 466 -98 126 0 215 5 258 14 76 16 173 62 222
105 l34 30 56 -42 c162 -121 377 -139 563 -47 146 72 265 224 293 375 30 159
-2 342 -86 495 -43 80 -58 99 -136 178 -67 69 -193 158 -272 192 -149 66 -355
110 -507 110 l-77 0 -3 -462 -3 -463 -30 -45 c-17 -25 -50 -56 -75 -70 -42
-23 -56 -25 -217 -28 -210 -5 -261 6 -317 68 -20 23 -41 52 -46 66 -6 15 -10
215 -10 480 l0 454 -35 0 c-98 0 -230 -93 -282 -198 l-28 -57 -5 -351 -5 -351
-27 -35 c-74 -96 -221 -94 -286 5 l-27 41 -3 418 -3 418 -34 0 c-94 0 -222
-88 -276 -190 -23 -44 -24 -53 -29 -340 -4 -253 -7 -299 -22 -326 -40 -74
-125 -114 -199 -94 -53 15 -113 69 -127 118 -8 27 -12 149 -12 382 l0 343 -56
-6 c-100 -10 -200 -86 -254 -194 -24 -45 -25 -60 -30 -273 -3 -124 -10 -234
-14 -245 -18 -42 -59 -86 -99 -107 -37 -20 -61 -23 -205 -26 -90 -2 -188 -1
-217 3 -75 9 -137 52 -169 117 l-26 52 0 913 0 913 -32 0 c-18 -1 -54 -9 -80
-19z m3749 -1346 c177 -83 312 -317 273 -473 -51 -203 -333 -207 -389 -6 -6
23 -11 138 -11 283 l0 243 28 -6 c15 -4 59 -22 99 -41z"/>
<path d="M2185 4734 c-213 -33 -378 -104 -533 -228 -90 -72 -156 -156 -213
-272 -63 -128 -83 -227 -77 -374 7 -153 51 -252 158 -360 108 -107 222 -154
377 -155 51 0 93 -2 93 -5 0 -13 -119 -121 -165 -149 -128 -81 -327 -106 -469
-61 -255 81 -416 298 -416 560 0 97 15 161 63 265 40 86 42 95 42 185 0 84 -3
101 -27 145 -14 28 -40 66 -57 85 l-31 35 -79 -81 c-153 -157 -228 -327 -250
-566 -25 -267 71 -527 265 -722 93 -92 179 -152 284 -197 349 -150 747 -76
1023 190 82 79 172 210 211 306 30 75 66 241 66 305 l0 39 -297 3 c-297 3
-298 3 -343 28 -24 14 -58 44 -74 67 -75 108 -25 305 114 443 72 73 128 104
242 136 125 34 207 68 251 105 51 42 98 142 104 223 l6 66 -89 -1 c-49 -1
-129 -7 -179 -15z"/>
<path d="M3370 4733 c-85 -29 -161 -101 -204 -193 -20 -43 -21 -63 -26 -510
l-5 -465 -27 -74 c-48 -133 -134 -232 -260 -303 -122 -67 -213 -135 -251 -183
-40 -54 -77 -155 -77 -213 l0 -35 88 6 c240 18 445 112 615 283 112 112 181
229 230 389 21 68 21 89 25 693 l3 622 -33 0 c-18 -1 -53 -8 -78 -17z"/>
<path d="M8752 3565 c-113 -515 -473 -833 -1030 -910 -99 -13 -437 -15 -2865
-15 -1514 0 -2795 -3 -2849 -6 l-96 -7 34 -62 c30 -54 34 -71 34 -131 0 -70
-22 -138 -57 -176 -9 -10 -12 -18 -7 -18 5 0 1252 0 2771 0 2688 0 2767 1
2915 20 502 64 839 217 992 449 125 190 180 427 174 751 -3 163 -3 164 -16
105z"/>
<path d="M1215 2628 c-36 -13 -91 -63 -112 -102 -19 -37 -19 -135 0 -172 34
-64 111 -114 177 -114 112 0 203 89 203 199 0 64 -17 102 -65 147 -54 51 -132
67 -203 42z"/>
<path d="M1650 2618 c-98 -50 -138 -173 -88 -268 73 -135 254 -147 342 -22 34
48 45 121 26 176 -37 115 -171 169 -280 114z"/>
</g>
</svg>
